<ttFont>
<head>
    <!-- Most of this table will be recalculated by the compiler -->
    <tableVersion value="1.0"/>
    <fontRevision value="10.1799926758"/>
    <checkSumAdjustment value="0xeb571ec5"/>
    <magicNumber value="0x5f0f3cf5"/>
    <flags value="00000000 00011111"/>
    <unitsPerEm value="2048"/>
    <created value="Fri May 11 20:00:39 2012"/>
    <modified value="Fri May 11 20:01:06 2012"/>
    <xMin value="-197"/>
    <yMin value="-483"/>
    <xMax value="3779"/>
    <yMax value="1565"/>
    <macStyle value="00000000 00000000"/>
    <lowestRecPPEM value="8"/>
    <fontDirectionHint value="2"/>
    <indexToLocFormat value="0"/>
    <glyphDataFormat value="0"/>
  </head>
    <TTGlyph name=".notdef" xMin="0" yMin="-225" xMax="2118" yMax="-135">
      <contour>
        <pt x="0" y="-135" on="1"/>
        <pt x="2118" y="-135" on="1"/>
        <pt x="2118" y="-225" on="1"/>
        <pt x="0" y="-225" on="1"/>
      </contour>
    </TTGlyph>
    <TTGlyph name=".null" xMin="0" yMin="-225" xMax="70" yMax="-135">
      <contour>
        <pt x="0" y="-135" on="1"/>
        <pt x="70" y="-135" on="1"/>
        <pt x="70" y="-225" on="1"/>
        <pt x="0" y="-225" on="1"/>
      </contour>
    </TTGlyph>
    <TTGlyph name="A" xMin="-12" yMin="-225" xMax="1549" yMax="1493">
      <contour>
        <pt x="-12" y="0" on="1"/>
        <pt x="-12" y="106" on="1"/>
        <pt x="119" y="106" on="1"/>
        <pt x="651" y="1493" on="1"/>
        <pt x="819" y="1493" on="1"/>
        <pt x="1352" y="106" on="1"/>
        <pt x="1499" y="106" on="1"/>
        <pt x="1499" y="0" on="1"/>
        <pt x="956" y="0" on="1"/>
        <pt x="956" y="106" on="1"/>
        <pt x="1122" y="106" on="1"/>
        <pt x="997" y="434" on="1"/>
        <pt x="369" y="434" on="1"/>
        <pt x="244" y="106" on="1"/>
        <pt x="408" y="106" on="1"/>
        <pt x="408" y="0" on="1"/>
      </contour>
      <contour>
        <pt x="-12" y="-135" on="1"/>
        <pt x="1549" y="-135" on="1"/>
        <pt x="1549" y="-225" on="1"/>
        <pt x="-12" y="-225" on="1"/>
      </contour>
      <contour>
        <pt x="410" y="541" on="1"/>
        <pt x="958" y="541" on="1"/>
        <pt x="684" y="1251" on="1"/>
      </contour>
    </TTGlyph>
    <TTGlyph name="B" xMin="0" yMin="-225" xMax="1575" yMax="1493">
      <contour>
        <pt x="0" y="-135" on="1"/>
        <pt x="1575" y="-135" on="1"/>
        <pt x="1575" y="-225" on="1"/>
        <pt x="0" y="-225" on="1"/>
      </contour>
      <contour>
        <pt x="113" y="0" on="1"/>
        <pt x="113" y="106" on="1"/>
        <pt x="303" y="106" on="1"/>
        <pt x="303" y="1386" on="1"/>
        <pt x="113" y="1386" on="1"/>
        <pt x="113" y="1493" on="1"/>
        <pt x="850" y="1493" on="1"/>
        <pt x="1076" y="1492" on="0"/>
        <pt x="1304" y="1308" on="0"/>
        <pt x="1305" y="1124" on="1"/>
        <pt x="1306" y="991" on="0"/>
        <pt x="1146" y="833" on="0"/>
        <pt x="993" y="815" on="1"/>
        <pt x="1184" y="792" on="0"/>
        <pt x="1380" y="596" on="0"/>
        <pt x="1380" y="432" on="1"/>
        <pt x="1380" y="210" on="0"/>
        <pt x="1100" y="0" on="0"/>
        <pt x="803" y="0" on="1"/>
      </contour>
      <contour>
        <pt x="506" y="106" on="1"/>
        <pt x="805" y="106" on="1"/>
        <pt x="985" y="106" on="0"/>
        <pt x="1151" y="262" on="0"/>
        <pt x="1151" y="432" on="1"/>
        <pt x="1150" y="600" on="0"/>
        <pt x="986" y="756" on="0"/>
        <pt x="805" y="756" on="1"/>
        <pt x="506" y="756" on="1"/>
      </contour>
      <contour>
        <pt x="506" y="862" on="1"/>
        <pt x="760" y="862" on="1"/>
        <pt x="924" y="862" on="0"/>
        <pt x="1076" y="988" on="0"/>
        <pt x="1075" y="1124" on="1"/>
        <pt x="1076" y="1262" on="0"/>
        <pt x="924" y="1386" on="0"/>
        <pt x="760" y="1386" on="1"/>
        <pt x="506" y="1386" on="1"/>
      </contour>
    </TTGlyph>
    <TTGlyph name="C" xMin="0" yMin="-225" xMax="1637" yMax="1520">
      <contour>
        <pt x="0" y="-135" on="1"/>
        <pt x="1637" y="-135" on="1"/>
        <pt x="1637" y="-225" on="1"/>
        <pt x="0" y="-225" on="1"/>
      </contour>
      <contour>
        <pt x="115" y="745" on="1"/>
        <pt x="115" y="1092" on="0"/>
        <pt x="517" y="1520" on="0"/>
        <pt x="846" y="1520" on="1"/>
        <pt x="968" y="1520" on="0"/>
        <pt x="1244" y="1456" on="0"/>
        <pt x="1403" y="1391" on="1"/>
        <pt x="1403" y="1047" on="1"/>
        <pt x="1290" y="1047" on="1"/>
        <pt x="1254" y="1235" on="0"/>
        <pt x="1030" y="1413" on="0"/>
        <pt x="829" y="1413" on="1"/>
        <pt x="590" y="1414" on="0"/>
        <pt x="344" y="1074" on="0"/>
        <pt x="344" y="745" on="1"/>
        <pt x="344" y="418" on="0"/>
        <pt x="590" y="78" on="0"/>
        <pt x="829" y="78" on="1"/>
        <pt x="996" y="78" on="0"/>
        <pt x="1212" y="238" on="0"/>
        <pt x="1260" y="395" on="1"/>
        <pt x="1444" y="395" on="1"/>
        <pt x="1378" y="186" on="0"/>
        <pt x="1066" y="-30" on="0"/>
        <pt x="829" y="-29" on="1"/>
        <pt x="683" y="-29" on="0"/>
        <pt x="433" y="71" on="0"/>
        <pt x="336" y="168" on="1"/>
        <pt x="224" y="280" on="0"/>
        <pt x="116" y="564" on="0"/>
      </contour>
    </TTGlyph>
    <TTGlyph name="D" xMin="0" yMin="-225" xMax="1712" yMax="1493">
      <contour>
        <pt x="0" y="-135" on="1"/>
        <pt x="1712" y="-135" on="1"/>
        <pt x="1712" y="-225" on="1"/>
        <pt x="0" y="-225" on="1"/>
      </contour>
      <contour>
        <pt x="113" y="0" on="1"/>
        <pt x="113" y="106" on="1"/>
        <pt x="303" y="106" on="1"/>
        <pt x="303" y="1386" on="1"/>
        <pt x="113" y="1386" on="1"/>
        <pt x="113" y="1493" on="1"/>
        <pt x="707" y="1493" on="1"/>
        <pt x="1092" y="1493" on="0"/>
        <pt x="1524" y="1099" on="0"/>
        <pt x="1524" y="748" on="1"/>
        <pt x="1524" y="396" on="0"/>
        <pt x="1092" y="0" on="0"/>
        <pt x="707" y="0" on="1"/>
      </contour>
      <contour>
        <pt x="506" y="106" on="1"/>
        <pt x="692" y="106" on="1"/>
        <pt x="982" y="106" on="0"/>
        <pt x="1294" y="438" on="0"/>
        <pt x="1294" y="1058" on="0"/>
        <pt x="984" y="1386" on="0"/>
        <pt x="692" y="1386" on="1"/>
        <pt x="506" y="1386" on="1"/>
      </contour>
    </TTGlyph>
    <TTGlyph name="E" xMin="0" yMin="-225" xMax="1565" yMax="1493">
      <contour>
        <pt x="0" y="-135" on="1"/>
        <pt x="1565" y="-135" on="1"/>
        <pt x="1565" y="-225" on="1"/>
        <pt x="0" y="-225" on="1"/>
      </contour>
      <contour>
        <pt x="113" y="0" on="1"/>
        <pt x="113" y="106" on="1"/>
        <pt x="303" y="106" on="1"/>
        <pt x="303" y="1386" on="1"/>
        <pt x="113" y="1386" on="1"/>
        <pt x="113" y="1493" on="1"/>
        <pt x="1315" y="1493" on="1"/>
        <pt x="1315" y="1161" on="1"/>
        <pt x="1192" y="1161" on="1"/>
        <pt x="1192" y="1370" on="1"/>
        <pt x="506" y="1370" on="1"/>
        <pt x="506" y="870" on="1"/>
        <pt x="995" y="870" on="1"/>
        <pt x="995" y="1057" on="1"/>
        <pt x="1118" y="1057" on="1"/>
        <pt x="1118" y="561" on="1"/>
        <pt x="995" y="561" on="1"/>
        <pt x="995" y="748" on="1"/>
        <pt x="506" y="748" on="1"/>
        <pt x="506" y="123" on="1"/>
        <pt x="1208" y="123" on="1"/>
        <pt x="1208" y="332" on="1"/>
        <pt x="1331" y="332" on="1"/>
        <pt x="1331" y="0" on="1"/>
      </contour>
    </TTGlyph>
    <TTGlyph name="F" xMin="0" yMin="-225" xMax="1491" yMax="1493">
      <contour>
        <pt x="0" y="-135" on="1"/>
        <pt x="1491" y="-135" on="1"/>
        <pt x="1491" y="-225" on="1"/>
        <pt x="0" y="-225" on="1"/>
      </contour>
      <contour>
        <pt x="113" y="0" on="1"/>
        <pt x="113" y="106" on="1"/>
        <pt x="303" y="106" on="1"/>
        <pt x="303" y="1386" on="1"/>
        <pt x="113" y="1386" on="1"/>
        <pt x="113" y="1493" on="1"/>
        <pt x="1335" y="1493" on="1"/>
        <pt x="1335" y="1161" on="1"/>
        <pt x="1212" y="1161" on="1"/>
        <pt x="1212" y="1370" on="1"/>
        <pt x="506" y="1370" on="1"/>
        <pt x="506" y="870" on="1"/>
        <pt x="1016" y="870" on="1"/>
        <pt x="1016" y="1057" on="1"/>
        <pt x="1139" y="1057" on="1"/>
        <pt x="1139" y="561" on="1"/>
        <pt x="1016" y="561" on="1"/>
        <pt x="1016" y="748" on="1"/>
        <pt x="506" y="748" on="1"/>
        <pt x="506" y="106" on="1"/>
        <pt x="745" y="106" on="1"/>
        <pt x="745" y="0" on="1"/>
      </contour>
    </TTGlyph>
    <TTGlyph name="G" xMin="0" yMin="-225" xMax="1706" yMax="1520">
      <contour>
        <pt x="0" y="-135" on="1"/>
        <pt x="1706" y="-135" on="1"/>
        <pt x="1706" y="-225" on="1"/>
        <pt x="0" y="-225" on="1"/>
      </contour>
      <contour>
        <pt x="115" y="745" on="1"/>
        <pt x="115" y="1100" on="0"/>
        <pt x="523" y="1520" on="0"/>
        <pt x="868" y="1520" on="1"/>
        <pt x="996" y="1520" on="0"/>
        <pt x="1268" y="1460" on="0"/>
        <pt x="1423" y="1401" on="1"/>
        <pt x="1423" y="1047" on="1"/>
        <pt x="1311" y="1047" on="1"/>
        <pt x="1276" y="1234" on="0"/>
        <pt x="1054" y="1414" on="0"/>
        <pt x="856" y="1413" on="1"/>
        <pt x="598" y="1413" on="0"/>
        <pt x="344" y="1081" on="0"/>
        <pt x="344" y="745" on="1"/>
        <pt x="344" y="416" on="0"/>
        <pt x="606" y="78" on="0"/>
        <pt x="860" y="78" on="1"/>
        <pt x="973" y="78" on="0"/>
        <pt x="1179" y="134" on="0"/>
        <pt x="1272" y="190" on="1"/>
        <pt x="1272" y="575" on="1"/>
        <pt x="991" y="575" on="1"/>
        <pt x="991" y="682" on="1"/>
        <pt x="1475" y="682" on="1"/>
        <pt x="1475" y="125" on="1"/>
        <pt x="1342" y="48" on="0"/>
        <pt x="1034" y="-28" on="0"/>
        <pt x="860" y="-29" on="1"/>
        <pt x="522" y="-30" on="0"/>
        <pt x="114" y="394" on="0"/>
      </contour>
    </TTGlyph>
    <TTGlyph name="H" xMin="0" yMin="-225" xMax="1856" yMax="1493">
      <contour>
        <pt x="0" y="-135" on="1"/>
        <pt x="1856" y="-135" on="1"/>
        <pt x="1856" y="-225" on="1"/>
        <pt x="0" y="-225" on="1"/>
      </contour>
      <contour>
        <pt x="113" y="0" on="1"/>
        <pt x="113" y="106" on="1"/>
        <pt x="303" y="106" on="1"/>
        <pt x="303" y="1386" on="1"/>
        <pt x="113" y="1386" on="1"/>
        <pt x="113" y="1493" on="1"/>
        <pt x="696" y="1493" on="1"/>
        <pt x="696" y="1386" on="1"/>
        <pt x="506" y="1386" on="1"/>
        <pt x="506" y="870" on="1"/>
        <pt x="1280" y="870" on="1"/>
        <pt x="1280" y="1386" on="1"/>
        <pt x="1090" y="1386" on="1"/>
        <pt x="1090" y="1493" on="1"/>
        <pt x="1673" y="1493" on="1"/>
        <pt x="1673" y="1386" on="1"/>
        <pt x="1483" y="1386" on="1"/>
        <pt x="1483" y="106" on="1"/>
        <pt x="1673" y="106" on="1"/>
        <pt x="1673" y="0" on="1"/>
        <pt x="1090" y="0" on="1"/>
        <pt x="1090" y="106" on="1"/>
        <pt x="1280" y="106" on="1"/>
        <pt x="1280" y="748" on="1"/>
        <pt x="506" y="748" on="1"/>
        <pt x="506" y="106" on="1"/>
        <pt x="696" y="106" on="1"/>
        <pt x="696" y="0" on="1"/>
      </contour>
    </TTGlyph>
    <TTGlyph name="I" xMin="0" yMin="-225" xMax="879" yMax="1493">
      <contour>
        <pt x="0" y="-135" on="1"/>
        <pt x="879" y="-135" on="1"/>
        <pt x="879" y="-225" on="1"/>
        <pt x="0" y="-225" on="1"/>
      </contour>
      <contour>
        <pt x="113" y="0" on="1"/>
        <pt x="113" y="106" on="1"/>
        <pt x="303" y="106" on="1"/>
        <pt x="303" y="1386" on="1"/>
        <pt x="113" y="1386" on="1"/>
        <pt x="113" y="1493" on="1"/>
        <pt x="696" y="1493" on="1"/>
        <pt x="696" y="1386" on="1"/>
        <pt x="506" y="1386" on="1"/>
        <pt x="506" y="106" on="1"/>
        <pt x="696" y="106" on="1"/>
        <pt x="696" y="0" on="1"/>
      </contour>
    </TTGlyph>
    <TTGlyph name="J" xMin="-172" yMin="-426" xMax="727" yMax="1493">
      <contour>
        <pt x="-172" y="-123" on="1"/>
        <pt x="-58" y="-123" on="1"/>
        <pt x="-55" y="-222" on="0"/>
        <pt x="33" y="-319" on="0"/>
        <pt x="121" y="-319" on="1"/>
        <pt x="240" y="-319" on="0"/>
        <pt x="334" y="-169" on="0"/>
        <pt x="334" y="49" on="1"/>
        <pt x="334" y="1386" on="1"/>
        <pt x="102" y="1386" on="1"/>
        <pt x="102" y="1493" on="1"/>
        <pt x="727" y="1493" on="1"/>
        <pt x="727" y="1386" on="1"/>
        <pt x="537" y="1386" on="1"/>
        <pt x="537" y="41" on="1"/>
        <pt x="537" y="-206" on="0"/>
        <pt x="339" y="-426" on="0"/>
        <pt x="119" y="-426" on="1"/>
        <pt x="48" y="-426" on="0"/>
        <pt x="-99" y="-392" on="0"/>
        <pt x="-172" y="-358" on="1"/>
      </contour>
    </TTGlyph>
    <TTGlyph name="K" xMin="0" yMin="-225" xMax="1600" yMax="1493">
      <contour>
        <pt x="0" y="-135" on="1"/>
        <pt x="1600" y="-135" on="1"/>
        <pt x="1600" y="-225" on="1"/>
        <pt x="0" y="-225" on="1"/>
      </contour>
      <contour>
        <pt x="113" y="0" on="1"/>
        <pt x="113" y="106" on="1"/>
        <pt x="303" y="106" on="1"/>
        <pt x="303" y="1386" on="1"/>
        <pt x="113" y="1386" on="1"/>
        <pt x="113" y="1493" on="1"/>
        <pt x="696" y="1493" on="1"/>
        <pt x="696" y="1386" on="1"/>
        <pt x="506" y="1386" on="1"/>
        <pt x="506" y="821" on="1"/>
        <pt x="1149" y="1386" on="1"/>
        <pt x="987" y="1386" on="1"/>
        <pt x="987" y="1493" on="1"/>
        <pt x="1483" y="1493" on="1"/>
        <pt x="1483" y="1386" on="1"/>
        <pt x="1315" y="1386" on="1"/>
        <pt x="674" y="823" on="1"/>
        <pt x="1391" y="106" on="1"/>
        <pt x="1561" y="106" on="1"/>
        <pt x="1561" y="0" on="1"/>
        <pt x="1214" y="0" on="1"/>
        <pt x="506" y="709" on="1"/>
        <pt x="506" y="106" on="1"/>
        <pt x="696" y="106" on="1"/>
        <pt x="696" y="0" on="1"/>
      </contour>
    </TTGlyph>
    <TTGlyph name="L" xMin="0" yMin="-225" xMax="1430" yMax="1493">
      <contour>
        <pt x="0" y="-135" on="1"/>
        <pt x="1430" y="-135" on="1"/>
        <pt x="1430" y="-225" on="1"/>
        <pt x="0" y="-225" on="1"/>
      </contour>
      <contour>
        <pt x="113" y="0" on="1"/>
        <pt x="113" y="106" on="1"/>
        <pt x="303" y="106" on="1"/>
        <pt x="303" y="1386" on="1"/>
        <pt x="113" y="1386" on="1"/>
        <pt x="113" y="1493" on="1"/>
        <pt x="696" y="1493" on="1"/>
        <pt x="696" y="1386" on="1"/>
        <pt x="506" y="1386" on="1"/>
        <pt x="506" y="123" on="1"/>
        <pt x="1188" y="123" on="1"/>
        <pt x="1188" y="373" on="1"/>
        <pt x="1311" y="373" on="1"/>
        <pt x="1311" y="0" on="1"/>
      </contour>
    </TTGlyph>
    <TTGlyph name="M" xMin="0" yMin="-225" xMax="2167" yMax="1493">
      <contour>
        <pt x="0" y="-135" on="1"/>
        <pt x="2167" y="-135" on="1"/>
        <pt x="2167" y="-225" on="1"/>
        <pt x="0" y="-225" on="1"/>
      </contour>
      <contour>
        <pt x="102" y="1386" on="1"/>
        <pt x="102" y="1493" on="1"/>
        <pt x="537" y="1493" on="1"/>
        <pt x="1061" y="430" on="1"/>
        <pt x="1585" y="1493" on="1"/>
        <pt x="1993" y="1493" on="1"/>
        <pt x="1993" y="1386" on="1"/>
        <pt x="1794" y="1386" on="1"/>
        <pt x="1794" y="106" on="1"/>
        <pt x="1985" y="106" on="1"/>
        <pt x="1985" y="0" on="1"/>
        <pt x="1401" y="0" on="1"/>
        <pt x="1401" y="106" on="1"/>
        <pt x="1591" y="106" on="1"/>
        <pt x="1591" y="1260" on="1"/>
        <pt x="1079" y="219" on="1"/>
        <pt x="938" y="219" on="1"/>
        <pt x="426" y="1260" on="1"/>
        <pt x="426" y="106" on="1"/>
        <pt x="616" y="106" on="1"/>
        <pt x="616" y="0" on="1"/>
        <pt x="113" y="0" on="1"/>
        <pt x="113" y="106" on="1"/>
        <pt x="303" y="106" on="1"/>
        <pt x="303" y="1386" on="1"/>
      </contour>
    </TTGlyph>
    <TTGlyph name="N" xMin="0" yMin="-225" xMax="1862" yMax="1493">
      <contour>
        <pt x="0" y="-135" on="1"/>
        <pt x="1862" y="-135" on="1"/>
        <pt x="1862" y="-225" on="1"/>
        <pt x="0" y="-225" on="1"/>
      </contour>
      <contour>
        <pt x="100" y="0" on="1"/>
        <pt x="100" y="106" on="1"/>
        <pt x="301" y="106" on="1"/>
        <pt x="301" y="1386" on="1"/>
        <pt x="100" y="1386" on="1"/>
        <pt x="100" y="1493" on="1"/>
        <pt x="483" y="1493" on="1"/>
        <pt x="1378" y="315" on="1"/>
        <pt x="1378" y="1386" on="1"/>
        <pt x="1178" y="1386" on="1"/>
        <pt x="1178" y="1493" on="1"/>
        <pt x="1702" y="1493" on="1"/>
        <pt x="1702" y="1386" on="1"/>
        <pt x="1501" y="1386" on="1"/>
        <pt x="1501" y="-29" on="1"/>
        <pt x="1380" y="-29" on="1"/>
        <pt x="424" y="1229" on="1"/>
        <pt x="424" y="106" on="1"/>
        <pt x="625" y="106" on="1"/>
        <pt x="625" y="0" on="1"/>
      </contour>
    </TTGlyph>
    <TTGlyph name="O" xMin="0" yMin="-225" xMax="1749" yMax="1520">
      <contour>
        <pt x="0" y="-135" on="1"/>
        <pt x="1749" y="-135" on="1"/>
        <pt x="1749" y="-225" on="1"/>
        <pt x="0" y="-225" on="1"/>
      </contour>
      <contour>
        <pt x="115" y="745" on="1"/>
        <pt x="116" y="926" on="0"/>
        <pt x="224" y="1210" on="0"/>
        <pt x="336" y="1323" on="1"/>
        <pt x="434" y="1420" on="0"/>
        <pt x="686" y="1520" on="0"/>
        <pt x="840" y="1520" on="1"/>
        <pt x="1165" y="1520" on="0"/>
        <pt x="1565" y="1094" on="0"/>
        <pt x="1565" y="745" on="1"/>
        <pt x="1565" y="566" on="0"/>
        <pt x="1455" y="278" on="0"/>
        <pt x="1343" y="168" on="1"/>
        <pt x="1245" y="70" on="0"/>
        <pt x="993" y="-30" on="0"/>
        <pt x="840" y="-29" on="1"/>
        <pt x="688" y="-29" on="0"/>
        <pt x="432" y="71" on="0"/>
        <pt x="336" y="168" on="1"/>
        <pt x="224" y="280" on="0"/>
        <pt x="116" y="564" on="0"/>
      </contour>
      <contour>
        <pt x="344" y="1076" on="0"/>
        <pt x="344" y="414" on="0"/>
        <pt x="594" y="78" on="0"/>
        <pt x="840" y="78" on="1"/>
        <pt x="1085" y="78" on="0"/>
        <pt x="1335" y="414" on="0"/>
        <pt x="1335" y="1076" on="0"/>
        <pt x="1085" y="1412" on="0"/>
        <pt x="840" y="1413" on="1"/>
        <pt x="594" y="1412" on="0"/>
      </contour>
    </TTGlyph>
    <TTGlyph name="P" xMin="0" yMin="-225" xMax="1448" yMax="1494">
      <contour>
        <pt x="0" y="-135" on="1"/>
        <pt x="1448" y="-135" on="1"/>
        <pt x="1448" y="-225" on="1"/>
        <pt x="0" y="-225" on="1"/>
      </contour>
      <contour>
        <pt x="113" y="0" on="1"/>
        <pt x="113" y="106" on="1"/>
        <pt x="303" y="106" on="1"/>
        <pt x="303" y="1386" on="1"/>
        <pt x="113" y="1386" on="1"/>
        <pt x="113" y="1493" on="1"/>
        <pt x="819" y="1493" on="1"/>
        <pt x="1043" y="1494" on="0"/>
        <pt x="1305" y="1266" on="0"/>
        <pt x="1305" y="1073" on="1"/>
        <pt x="1305" y="881" on="0"/>
        <pt x="1043" y="653" on="0"/>
        <pt x="819" y="653" on="1"/>
        <pt x="506" y="653" on="1"/>
        <pt x="506" y="106" on="1"/>
        <pt x="737" y="106" on="1"/>
        <pt x="737" y="0" on="1"/>
      </contour>
      <contour>
        <pt x="506" y="760" on="1"/>
        <pt x="770" y="760" on="1"/>
        <pt x="919" y="760" on="0"/>
        <pt x="1075" y="920" on="0"/>
        <pt x="1075" y="1226" on="0"/>
        <pt x="919" y="1386" on="0"/>
        <pt x="770" y="1386" on="1"/>
        <pt x="506" y="1386" on="1"/>
      </contour>
    </TTGlyph>
    <TTGlyph name="Q" xMin="0" yMin="-328" xMax="1749" yMax="1520">
      <contour>
        <pt x="0" y="-135" on="1"/>
        <pt x="728" y="-135" on="1"/>
        <pt x="728" y="-225" on="1"/>
        <pt x="0" y="-225" on="1"/>
      </contour>
      <contour>
        <pt x="115" y="745" on="1"/>
        <pt x="116" y="926" on="0"/>
        <pt x="224" y="1210" on="0"/>
        <pt x="336" y="1323" on="1"/>
        <pt x="434" y="1420" on="0"/>
        <pt x="686" y="1520" on="0"/>
        <pt x="840" y="1520" on="1"/>
        <pt x="1165" y="1520" on="0"/>
        <pt x="1565" y="1094" on="0"/>
        <pt x="1565" y="745" on="1"/>
        <pt x="1565" y="450" on="0"/>
        <pt x="1265" y="46" on="0"/>
        <pt x="1001" y="-12" on="1"/>
        <pt x="1054" y="-79" on="0"/>
        <pt x="1210" y="-143" on="0"/>
        <pt x="1319" y="-143" on="1"/>
        <pt x="1350" y="-143" on="1"/>
        <pt x="1350" y="-328" on="1"/>
        <pt x="1180" y="-320" on="0"/>
        <pt x="940" y="-172" on="0"/>
        <pt x="864" y="-29" on="1"/>
        <pt x="521" y="-28" on="0"/>
        <pt x="115" y="392" on="0"/>
      </contour>
      <contour>
        <pt x="344" y="1076" on="0"/>
        <pt x="344" y="414" on="0"/>
        <pt x="594" y="78" on="0"/>
        <pt x="840" y="78" on="1"/>
        <pt x="1085" y="78" on="0"/>
        <pt x="1335" y="414" on="0"/>
        <pt x="1335" y="1076" on="0"/>
        <pt x="1085" y="1412" on="0"/>
        <pt x="840" y="1413" on="1"/>
        <pt x="594" y="1412" on="0"/>
      </contour>
      <contour>
        <pt x="1478" y="-135" on="1"/>
        <pt x="1749" y="-135" on="1"/>
        <pt x="1749" y="-225" on="1"/>
        <pt x="1478" y="-225" on="1"/>
      </contour>
    </TTGlyph>
    <TTGlyph name="R" xMin="0" yMin="-225" xMax="1612" yMax="1493">
      <contour>
        <pt x="0" y="-135" on="1"/>
        <pt x="1612" y="-135" on="1"/>
        <pt x="1612" y="-225" on="1"/>
        <pt x="0" y="-225" on="1"/>
      </contour>
      <contour>
        <pt x="113" y="0" on="1"/>
        <pt x="113" y="106" on="1"/>
        <pt x="303" y="106" on="1"/>
        <pt x="303" y="1386" on="1"/>
        <pt x="113" y="1386" on="1"/>
        <pt x="113" y="1493" on="1"/>
        <pt x="870" y="1493" on="1"/>
        <pt x="1088" y="1493" on="0"/>
        <pt x="1324" y="1285" on="0"/>
        <pt x="1325" y="1094" on="1"/>
        <pt x="1324" y="940" on="0"/>
        <pt x="1152" y="764" on="0"/>
        <pt x="981" y="741" on="1"/>
        <pt x="1052" y="722" on="0"/>
        <pt x="1152" y="630" on="0"/>
        <pt x="1192" y="549" on="1"/>
        <pt x="1409" y="106" on="1"/>
        <pt x="1591" y="106" on="1"/>
        <pt x="1591" y="0" on="1"/>
        <pt x="1239" y="0" on="1"/>
        <pt x="1006" y="475" on="1"/>
        <pt x="939" y="614" on="0"/>
        <pt x="827" y="694" on="0"/>
        <pt x="729" y="694" on="1"/>
        <pt x="506" y="694" on="1"/>
        <pt x="506" y="106" on="1"/>
        <pt x="717" y="106" on="1"/>
        <pt x="717" y="0" on="1"/>
      </contour>
      <contour>
        <pt x="506" y="801" on="1"/>
        <pt x="801" y="801" on="1"/>
        <pt x="952" y="800" on="0"/>
        <pt x="1096" y="944" on="0"/>
        <pt x="1096" y="1244" on="0"/>
        <pt x="952" y="1386" on="0"/>
        <pt x="801" y="1386" on="1"/>
        <pt x="506" y="1386" on="1"/>
      </contour>
    </TTGlyph>
    <TTGlyph name="S" xMin="0" yMin="-225" xMax="1473" yMax="1520">
      <contour>
        <pt x="0" y="-135" on="1"/>
        <pt x="1473" y="-135" on="1"/>
        <pt x="1473" y="-225" on="1"/>
        <pt x="0" y="-225" on="1"/>
      </contour>
      <contour>
        <pt x="172" y="1120" on="1"/>
        <pt x="172" y="1310" on="0"/>
        <pt x="442" y="1520" on="0"/>
        <pt x="686" y="1520" on="1"/>
        <pt x="790" y="1520" on="0"/>
        <pt x="1038" y="1476" on="0"/>
        <pt x="1178" y="1432" on="1"/>
        <pt x="1178" y="1114" on="1"/>
        <pt x="1065" y="1114" on="1"/>
        <pt x="1048" y="1272" on="0"/>
        <pt x="872" y="1412" on="0"/>
        <pt x="690" y="1413" on="1"/>
        <pt x="532" y="1412" on="0"/>
        <pt x="368" y="1284" on="0"/>
        <pt x="367" y="1161" on="1"/>
        <pt x="367" y="1054" on="0"/>
        <pt x="491" y="932" on="0"/>
        <pt x="692" y="872" on="1"/>
        <pt x="877" y="817" on="1"/>
        <pt x="1080" y="756" on="0"/>
        <pt x="1252" y="568" on="0"/>
        <pt x="1253" y="408" on="1"/>
        <pt x="1253" y="191" on="0"/>
        <pt x="975" y="-29" on="0"/>
        <pt x="700" y="-29" on="1"/>
        <pt x="578" y="-29" on="0"/>
        <pt x="322" y="21" on="0"/>
        <pt x="190" y="72" on="1"/>
        <pt x="190" y="412" on="1"/>
        <pt x="305" y="411" on="1"/>
        <pt x="310" y="242" on="0"/>
        <pt x="498" y="78" on="0"/>
        <pt x="688" y="78" on="1"/>
        <pt x="866" y="78" on="0"/>
        <pt x="1054" y="218" on="0"/>
        <pt x="1053" y="354" on="1"/>
        <pt x="1052" y="462" on="0"/>
        <pt x="940" y="578" on="0"/>
        <pt x="758" y="633" on="1"/>
        <pt x="561" y="692" on="1"/>
        <pt x="348" y="757" on="0"/>
        <pt x="172" y="951" on="0"/>
      </contour>
    </TTGlyph>
    <TTGlyph name="T" xMin="0" yMin="-225" xMax="1436" yMax="1493">
      <contour>
        <pt x="0" y="-135" on="1"/>
        <pt x="1436" y="-135" on="1"/>
        <pt x="1436" y="-225" on="1"/>
        <pt x="0" y="-225" on="1"/>
      </contour>
      <contour>
        <pt x="20" y="1141" on="1"/>
        <pt x="20" y="1493" on="1"/>
        <pt x="1346" y="1493" on="1"/>
        <pt x="1346" y="1141" on="1"/>
        <pt x="1223" y="1141" on="1"/>
        <pt x="1223" y="1374" on="1"/>
        <pt x="784" y="1374" on="1"/>
        <pt x="784" y="106" on="1"/>
        <pt x="975" y="106" on="1"/>
        <pt x="975" y="0" on="1"/>
        <pt x="391" y="0" on="1"/>
        <pt x="391" y="106" on="1"/>
        <pt x="582" y="106" on="1"/>
        <pt x="582" y="1374" on="1"/>
        <pt x="143" y="1374" on="1"/>
        <pt x="143" y="1141" on="1"/>
      </contour>
    </TTGlyph>
    <TTGlyph name="U" xMin="0" yMin="-225" xMax="1796" yMax="1493">
      <contour>
        <pt x="0" y="-135" on="1"/>
        <pt x="1796" y="-135" on="1"/>
        <pt x="1796" y="-225" on="1"/>
        <pt x="0" y="-225" on="1"/>
      </contour>
      <contour>
        <pt x="96" y="1386" on="1"/>
        <pt x="96" y="1493" on="1"/>
        <pt x="680" y="1493" on="1"/>
        <pt x="680" y="1386" on="1"/>
        <pt x="489" y="1386" on="1"/>
        <pt x="489" y="614" on="1"/>
        <pt x="488" y="328" on="0"/>
        <pt x="676" y="102" on="0"/>
        <pt x="1134" y="102" on="0"/>
        <pt x="1322" y="328" on="0"/>
        <pt x="1321" y="614" on="1"/>
        <pt x="1321" y="1386" on="1"/>
        <pt x="1130" y="1386" on="1"/>
        <pt x="1130" y="1493" on="1"/>
        <pt x="1634" y="1493" on="1"/>
        <pt x="1634" y="1386" on="1"/>
        <pt x="1444" y="1386" on="1"/>
        <pt x="1444" y="594" on="1"/>
        <pt x="1444" y="253" on="0"/>
        <pt x="1182" y="-29" on="0"/>
        <pt x="554" y="-29" on="0"/>
        <pt x="286" y="255" on="0"/>
        <pt x="287" y="594" on="1"/>
        <pt x="287" y="1386" on="1"/>
      </contour>
    </TTGlyph>
    <TTGlyph name="V" xMin="-20" yMin="-225" xMax="1549" yMax="1493">
      <contour>
        <pt x="-20" y="-135" on="1"/>
        <pt x="1549" y="-135" on="1"/>
        <pt x="1549" y="-225" on="1"/>
        <pt x="-20" y="-225" on="1"/>
      </contour>
      <contour>
        <pt x="-20" y="1386" on="1"/>
        <pt x="-20" y="1493" on="1"/>
        <pt x="524" y="1493" on="1"/>
        <pt x="524" y="1386" on="1"/>
        <pt x="358" y="1386" on="1"/>
        <pt x="799" y="240" on="1"/>
        <pt x="1239" y="1386" on="1"/>
        <pt x="1071" y="1386" on="1"/>
        <pt x="1071" y="1493" on="1"/>
        <pt x="1509" y="1493" on="1"/>
        <pt x="1509" y="1386" on="1"/>
        <pt x="1364" y="1386" on="1"/>
        <pt x="831" y="0" on="1"/>
        <pt x="659" y="0" on="1"/>
        <pt x="129" y="1386" on="1"/>
      </contour>
    </TTGlyph>
    <TTGlyph name="W" xMin="0" yMin="-225" xMax="2175" yMax="1493">
      <contour>
        <pt x="0" y="-135" on="1"/>
        <pt x="2175" y="-135" on="1"/>
        <pt x="2175" y="-225" on="1"/>
        <pt x="0" y="-225" on="1"/>
      </contour>
      <contour>
        <pt x="10" y="1386" on="1"/>
        <pt x="10" y="1493" on="1"/>
        <pt x="555" y="1493" on="1"/>
        <pt x="555" y="1386" on="1"/>
        <pt x="369" y="1386" on="1"/>
        <pt x="680" y="283" on="1"/>
        <pt x="1020" y="1493" on="1"/>
        <pt x="1182" y="1493" on="1"/>
        <pt x="1528" y="270" on="1"/>
        <pt x="1841" y="1386" on="1"/>
        <pt x="1669" y="1386" on="1"/>
        <pt x="1669" y="1493" on="1"/>
        <pt x="2099" y="1493" on="1"/>
        <pt x="2099" y="1386" on="1"/>
        <pt x="1952" y="1386" on="1"/>
        <pt x="1561" y="0" on="1"/>
        <pt x="1397" y="0" on="1"/>
        <pt x="1055" y="1214" on="1"/>
        <pt x="713" y="0" on="1"/>
        <pt x="549" y="0" on="1"/>
        <pt x="158" y="1386" on="1"/>
      </contour>
    </TTGlyph>
    <TTGlyph name="X" xMin="0" yMin="-225" xMax="1528" yMax="1493">
      <contour>
        <pt x="0" y="-135" on="1"/>
        <pt x="1528" y="-135" on="1"/>
        <pt x="1528" y="-225" on="1"/>
        <pt x="0" y="-225" on="1"/>
      </contour>
      <contour>
        <pt x="12" y="0" on="1"/>
        <pt x="12" y="106" on="1"/>
        <pt x="184" y="106" on="1"/>
        <pt x="614" y="733" on="1"/>
        <pt x="178" y="1386" on="1"/>
        <pt x="18" y="1386" on="1"/>
        <pt x="18" y="1493" on="1"/>
        <pt x="610" y="1493" on="1"/>
        <pt x="610" y="1386" on="1"/>
        <pt x="434" y="1386" on="1"/>
        <pt x="754" y="905" on="1"/>
        <pt x="1083" y="1386" on="1"/>
        <pt x="891" y="1386" on="1"/>
        <pt x="891" y="1493" on="1"/>
        <pt x="1380" y="1493" on="1"/>
        <pt x="1380" y="1386" on="1"/>
        <pt x="1212" y="1386" on="1"/>
        <pt x="817" y="811" on="1"/>
        <pt x="1288" y="106" on="1"/>
        <pt x="1448" y="106" on="1"/>
        <pt x="1448" y="0" on="1"/>
        <pt x="856" y="0" on="1"/>
        <pt x="856" y="106" on="1"/>
        <pt x="1034" y="106" on="1"/>
        <pt x="678" y="639" on="1"/>
        <pt x="313" y="106" on="1"/>
        <pt x="506" y="106" on="1"/>
        <pt x="506" y="0" on="1"/>
      </contour>
    </TTGlyph>
    <TTGlyph name="Y" xMin="-23" yMin="-225" xMax="1422" yMax="1493">
      <contour>
        <pt x="-23" y="-135" on="1"/>
        <pt x="1422" y="-135" on="1"/>
        <pt x="1422" y="-225" on="1"/>
        <pt x="-23" y="-225" on="1"/>
      </contour>
      <contour>
        <pt x="-23" y="1386" on="1"/>
        <pt x="-23" y="1493" on="1"/>
        <pt x="532" y="1493" on="1"/>
        <pt x="532" y="1386" on="1"/>
        <pt x="358" y="1386" on="1"/>
        <pt x="731" y="782" on="1"/>
        <pt x="1104" y="1386" on="1"/>
        <pt x="936" y="1386" on="1"/>
        <pt x="936" y="1493" on="1"/>
        <pt x="1370" y="1493" on="1"/>
        <pt x="1370" y="1386" on="1"/>
        <pt x="1229" y="1386" on="1"/>
        <pt x="780" y="662" on="1"/>
        <pt x="780" y="106" on="1"/>
        <pt x="971" y="106" on="1"/>
        <pt x="971" y="0" on="1"/>
        <pt x="387" y="0" on="1"/>
        <pt x="387" y="106" on="1"/>
        <pt x="578" y="106" on="1"/>
        <pt x="578" y="643" on="1"/>
        <pt x="117" y="1386" on="1"/>
      </contour>
    </TTGlyph>
    <TTGlyph name="Z" xMin="0" yMin="-225" xMax="1493" yMax="1493">
      <contour>
        <pt x="0" y="-135" on="1"/>
        <pt x="1493" y="-135" on="1"/>
        <pt x="1493" y="-225" on="1"/>
        <pt x="0" y="-225" on="1"/>
      </contour>
      <contour>
        <pt x="92" y="0" on="1"/>
        <pt x="92" y="72" on="1"/>
        <pt x="1022" y="1370" on="1"/>
        <pt x="250" y="1370" on="1"/>
        <pt x="250" y="1147" on="1"/>
        <pt x="127" y="1147" on="1"/>
        <pt x="127" y="1493" on="1"/>
        <pt x="1307" y="1493" on="1"/>
        <pt x="1307" y="1421" on="1"/>
        <pt x="377" y="123" on="1"/>
        <pt x="1221" y="123" on="1"/>
        <pt x="1221" y="332" on="1"/>
        <pt x="1343" y="332" on="1"/>
        <pt x="1343" y="0" on="1"/>
      </contour>
    </TTGlyph>
    <TTGlyph name="a" xMin="0" yMin="-225" xMax="1291" yMax="1092">
      <contour>
        <pt x="0" y="-135" on="1"/>
        <pt x="1291" y="-135" on="1"/>
        <pt x="1291" y="-225" on="1"/>
        <pt x="0" y="-225" on="1"/>
      </contour>
      <contour>
        <pt x="102" y="319" on="1"/>
        <pt x="102" y="484" on="0"/>
        <pt x="340" y="666" on="0"/>
        <pt x="557" y="666" on="1"/>
        <pt x="815" y="666" on="1"/>
        <pt x="815" y="739" on="1"/>
        <pt x="816" y="860" on="0"/>
        <pt x="668" y="992" on="0"/>
        <pt x="535" y="993" on="1"/>
        <pt x="425" y="993" on="0"/>
        <pt x="295" y="893" on="0"/>
        <pt x="279" y="795" on="1"/>
        <pt x="184" y="795" on="1"/>
        <pt x="184" y="1010" on="1"/>
        <pt x="280" y="1052" on="0"/>
        <pt x="460" y="1092" on="0"/>
        <pt x="547" y="1092" on="1"/>
        <pt x="768" y="1092" on="0"/>
        <pt x="1000" y="872" on="0"/>
        <pt x="999" y="664" on="1"/>
        <pt x="999" y="106" on="1"/>
        <pt x="1163" y="106" on="1"/>
        <pt x="1163" y="0" on="1"/>
        <pt x="815" y="0" on="1"/>
        <pt x="815" y="115" on="1"/>
        <pt x="754" y="41" on="0"/>
        <pt x="594" y="-29" on="0"/>
        <pt x="487" y="-29" on="1"/>
        <pt x="310" y="-29" on="0"/>
        <pt x="102" y="159" on="0"/>
      </contour>
      <contour>
        <pt x="307" y="319" on="1"/>
        <pt x="307" y="208" on="0"/>
        <pt x="443" y="78" on="0"/>
        <pt x="559" y="78" on="1"/>
        <pt x="674" y="78" on="0"/>
        <pt x="814" y="220" on="0"/>
        <pt x="815" y="334" on="1"/>
        <pt x="815" y="559" on="1"/>
        <pt x="578" y="559" on="1"/>
        <pt x="441" y="559" on="0"/>
        <pt x="307" y="441" on="0"/>
      </contour>
    </TTGlyph>
    <TTGlyph name="at" xMin="0" yMin="-356" xMax="2118" yMax="1442">
      <contour>
        <pt x="0" y="-135" on="1"/>
        <pt x="300" y="-135" on="1"/>
        <pt x="300" y="-225" on="1"/>
        <pt x="0" y="-225" on="1"/>
      </contour>
      <contour>
        <pt x="135" y="543" on="1"/>
        <pt x="135" y="727" on="0"/>
        <pt x="269" y="1053" on="0"/>
        <pt x="397" y="1180" on="1"/>
        <pt x="524" y="1306" on="0"/>
        <pt x="868" y="1442" on="0"/>
        <pt x="1063" y="1442" on="1"/>
        <pt x="1278" y="1442" on="0"/>
        <pt x="1630" y="1276" on="0"/>
        <pt x="1749" y="1120" on="1"/>
        <pt x="1825" y="1022" on="0"/>
        <pt x="1903" y="792" on="0"/>
        <pt x="1903" y="668" on="1"/>
        <pt x="1903" y="400" on="0"/>
        <pt x="1577" y="88" on="0"/>
        <pt x="1295" y="86" on="1"/>
        <pt x="1294" y="248" on="1"/>
        <pt x="1236" y="166" on="0"/>
        <pt x="1088" y="86" on="0"/>
        <pt x="995" y="86" on="1"/>
        <pt x="820" y="86" on="0"/>
        <pt x="602" y="336" on="0"/>
        <pt x="602" y="738" on="0"/>
        <pt x="820" y="986" on="0"/>
        <pt x="995" y="987" on="1"/>
        <pt x="1088" y="987" on="0"/>
        <pt x="1236" y="907" on="0"/>
        <pt x="1294" y="825" on="1"/>
        <pt x="1294" y="967" on="1"/>
        <pt x="1450" y="967" on="1"/>
        <pt x="1450" y="195" on="1"/>
        <pt x="1620" y="232" on="0"/>
        <pt x="1808" y="482" on="0"/>
        <pt x="1808" y="670" on="1"/>
        <pt x="1808" y="781" on="0"/>
        <pt x="1740" y="979" on="0"/>
        <pt x="1673" y="1063" on="1"/>
        <pt x="1566" y="1196" on="0"/>
        <pt x="1262" y="1336" on="0"/>
        <pt x="1083" y="1337" on="1"/>
        <pt x="993" y="1337" on="0"/>
        <pt x="817" y="1299" on="0"/>
        <pt x="731" y="1260" on="1"/>
        <pt x="529" y="1166" on="0"/>
        <pt x="305" y="790" on="0"/>
        <pt x="305" y="543" on="1"/>
        <pt x="305" y="376" on="0"/>
        <pt x="405" y="96" on="0"/>
        <pt x="500" y="-8" on="1"/>
        <pt x="608" y="-128" on="0"/>
        <pt x="908" y="-252" on="0"/>
        <pt x="1081" y="-252" on="1"/>
        <pt x="1210" y="-252" on="0"/>
        <pt x="1434" y="-176" on="0"/>
        <pt x="1530" y="-100" on="1"/>
        <pt x="1583" y="-170" on="1"/>
        <pt x="1475" y="-264" on="0"/>
        <pt x="1201" y="-356" on="0"/>
        <pt x="1038" y="-356" on="1"/>
        <pt x="854" y="-356" on="0"/>
        <pt x="522" y="-224" on="0"/>
        <pt x="397" y="-100" on="1"/>
        <pt x="268" y="26" on="0"/>
        <pt x="136" y="354" on="0"/>
      </contour>
      <contour>
        <pt x="780" y="537" on="1"/>
        <pt x="780" y="378" on="0"/>
        <pt x="916" y="202" on="0"/>
        <pt x="1038" y="203" on="1"/>
        <pt x="1152" y="204" on="0"/>
        <pt x="1294" y="360" on="0"/>
        <pt x="1294" y="485" on="1"/>
        <pt x="1294" y="590" on="1"/>
        <pt x="1294" y="714" on="0"/>
        <pt x="1150" y="870" on="0"/>
        <pt x="1036" y="870" on="1"/>
        <pt x="916" y="870" on="0"/>
        <pt x="780" y="694" on="0"/>
      </contour>
      <contour>
        <pt x="1720" y="-135" on="1"/>
        <pt x="2118" y="-135" on="1"/>
        <pt x="2118" y="-225" on="1"/>
        <pt x="1720" y="-225" on="1"/>
      </contour>
    </TTGlyph>
    <TTGlyph name="b" xMin="0" yMin="-225" xMax="1381" yMax="1556">
      <contour>
        <pt x="0" y="-135" on="1"/>
        <pt x="1381" y="-135" on="1"/>
        <pt x="1381" y="-225" on="1"/>
        <pt x="0" y="-225" on="1"/>
      </contour>
      <contour>
        <pt x="59" y="0" on="1"/>
        <pt x="59" y="106" on="1"/>
        <pt x="236" y="106" on="1"/>
        <pt x="236" y="1450" on="1"/>
        <pt x="59" y="1450" on="1"/>
        <pt x="59" y="1556" on="1"/>
        <pt x="420" y="1556" on="1"/>
        <pt x="420" y="897" on="1"/>
        <pt x="474" y="996" on="0"/>
        <pt x="642" y="1092" on="0"/>
        <pt x="764" y="1092" on="1"/>
        <pt x="960" y="1092" on="0"/>
        <pt x="1208" y="782" on="0"/>
        <pt x="1208" y="282" on="0"/>
        <pt x="960" y="-30" on="0"/>
        <pt x="764" y="-29" on="1"/>
        <pt x="642" y="-30" on="0"/>
        <pt x="474" y="66" on="0"/>
        <pt x="420" y="166" on="1"/>
        <pt x="420" y="0" on="1"/>
      </contour>
      <contour>
        <pt x="420" y="479" on="1"/>
        <pt x="420" y="286" on="0"/>
        <pt x="568" y="86" on="0"/>
        <pt x="707" y="86" on="1"/>
        <pt x="848" y="86" on="0"/>
        <pt x="992" y="312" on="0"/>
        <pt x="993" y="532" on="1"/>
        <pt x="992" y="753" on="0"/>
        <pt x="848" y="977" on="0"/>
        <pt x="707" y="977" on="1"/>
        <pt x="568" y="977" on="0"/>
        <pt x="420" y="775" on="0"/>
        <pt x="420" y="584" on="1"/>
      </contour>
    </TTGlyph>
    <TTGlyph name="backslash" xMin="0" yMin="-225" xMax="760" yMax="1493">
      <contour>
        <pt x="0" y="-135" on="1"/>
        <pt x="513" y="-135" on="1"/>
        <pt x="530" y="-190" on="1"/>
        <pt x="690" y="-190" on="1"/>
        <pt x="673" y="-135" on="1"/>
        <pt x="760" y="-135" on="1"/>
        <pt x="760" y="-225" on="1"/>
        <pt x="0" y="-225" on="1"/>
      </contour>
      <contour>
        <pt x="0" y="1493" on="1"/>
        <pt x="513" y="-135" on="1"/>
        <pt x="673" y="-135" on="1"/>
        <pt x="160" y="1493" on="1"/>
      </contour>
    </TTGlyph>
    <TTGlyph name="bar" xMin="0" yMin="-483" xMax="760" yMax="1565">
      <contour>
        <pt x="0" y="-135" on="1"/>
        <pt x="264" y="-135" on="1"/>
        <pt x="264" y="1565" on="1"/>
        <pt x="426" y="1565" on="1"/>
        <pt x="426" y="-135" on="1"/>
        <pt x="760" y="-135" on="1"/>
        <pt x="760" y="-225" on="1"/>
        <pt x="426" y="-225" on="1"/>
        <pt x="426" y="-483" on="1"/>
        <pt x="264" y="-483" on="1"/>
        <pt x="264" y="-225" on="1"/>
        <pt x="0" y="-225" on="1"/>
      </contour>
    </TTGlyph>
    <TTGlyph name="bullet" xMin="0" yMin="-225" xMax="1278" yMax="1058">
      <contour>
        <pt x="0" y="-135" on="1"/>
        <pt x="1278" y="-135" on="1"/>
        <pt x="1278" y="-225" on="1"/>
        <pt x="0" y="-225" on="1"/>
      </contour>
      <contour>
        <pt x="307" y="762" on="1"/>
        <pt x="308" y="886" on="0"/>
        <pt x="480" y="1058" on="0"/>
        <pt x="606" y="1057" on="1"/>
        <pt x="730" y="1058" on="0"/>
        <pt x="902" y="886" on="0"/>
        <pt x="901" y="762" on="1"/>
        <pt x="901" y="637" on="0"/>
        <pt x="729" y="465" on="0"/>
        <pt x="479" y="465" on="0"/>
        <pt x="307" y="637" on="0"/>
      </contour>
    </TTGlyph>
    <TTGlyph name="c" xMin="0" yMin="-225" xMax="1217" yMax="1092">
      <contour>
        <pt x="0" y="-135" on="1"/>
        <pt x="1217" y="-135" on="1"/>
        <pt x="1217" y="-225" on="1"/>
        <pt x="0" y="-225" on="1"/>
      </contour>
      <contour>
        <pt x="102" y="532" on="1"/>
        <pt x="102" y="788" on="0"/>
        <pt x="384" y="1092" on="0"/>
        <pt x="616" y="1092" on="1"/>
        <pt x="717" y="1092" on="0"/>
        <pt x="917" y="1044" on="0"/>
        <pt x="1018" y="997" on="1"/>
        <pt x="1018" y="725" on="1"/>
        <pt x="911" y="725" on="1"/>
        <pt x="890" y="865" on="0"/>
        <pt x="750" y="993" on="0"/>
        <pt x="618" y="993" on="1"/>
        <pt x="469" y="994" on="0"/>
        <pt x="317" y="762" on="0"/>
        <pt x="317" y="532" on="1"/>
        <pt x="316" y="302" on="0"/>
        <pt x="468" y="70" on="0"/>
        <pt x="618" y="70" on="1"/>
        <pt x="737" y="70" on="0"/>
        <pt x="879" y="194" on="0"/>
        <pt x="905" y="319" on="1"/>
        <pt x="1053" y="319" on="1"/>
        <pt x="1014" y="149" on="0"/>
        <pt x="792" y="-29" on="0"/>
        <pt x="616" y="-29" on="1"/>
        <pt x="384" y="-30" on="0"/>
        <pt x="102" y="278" on="0"/>
      </contour>
    </TTGlyph>
    <TTGlyph name="colon" xMin="0" yMin="-225" xMax="760" yMax="889">
      <contour>
        <pt x="0" y="-135" on="1"/>
        <pt x="760" y="-135" on="1"/>
        <pt x="760" y="-225" on="1"/>
        <pt x="0" y="-225" on="1"/>
      </contour>
      <contour>
        <pt x="213" y="104" on="1"/>
        <pt x="214" y="160" on="0"/>
        <pt x="290" y="238" on="0"/>
        <pt x="402" y="238" on="0"/>
        <pt x="478" y="160" on="0"/>
        <pt x="479" y="104" on="1"/>
        <pt x="479" y="48" on="0"/>
        <pt x="403" y="-28" on="0"/>
        <pt x="346" y="-29" on="1"/>
        <pt x="289" y="-28" on="0"/>
        <pt x="213" y="48" on="0"/>
      </contour>
      <contour>
        <pt x="213" y="756" on="1"/>
        <pt x="214" y="812" on="0"/>
        <pt x="290" y="888" on="0"/>
        <pt x="346" y="889" on="1"/>
        <pt x="403" y="889" on="0"/>
        <pt x="479" y="813" on="0"/>
        <pt x="479" y="699" on="0"/>
        <pt x="403" y="623" on="0"/>
        <pt x="346" y="623" on="1"/>
        <pt x="290" y="624" on="0"/>
        <pt x="214" y="700" on="0"/>
      </contour>
    </TTGlyph>
    <TTGlyph name="comma" xMin="74" yMin="-279" xMax="721" yMax="227">
      <contour>
        <pt x="74" y="-199" on="1"/>
        <pt x="168" y="-130" on="0"/>
        <pt x="256" y="58" on="0"/>
        <pt x="256" y="190" on="1"/>
        <pt x="256" y="227" on="1"/>
        <pt x="453" y="227" on="1"/>
        <pt x="444" y="56" on="0"/>
        <pt x="300" y="-188" on="0"/>
        <pt x="154" y="-279" on="1"/>
      </contour>
      <contour>
        <pt x="433" y="-135" on="1"/>
        <pt x="721" y="-135" on="1"/>
        <pt x="721" y="-225" on="1"/>
        <pt x="433" y="-225" on="1"/>
      </contour>
    </TTGlyph>
    <TTGlyph name="copyright" xMin="0" yMin="-225" xMax="2118" yMax="1485">
      <contour>
        <pt x="0" y="-135" on="1"/>
        <pt x="2118" y="-135" on="1"/>
        <pt x="2118" y="-225" on="1"/>
        <pt x="0" y="-225" on="1"/>
      </contour>
      <contour>
        <pt x="283" y="741" on="1"/>
        <pt x="283" y="895" on="0"/>
        <pt x="391" y="1157" on="0"/>
        <pt x="500" y="1266" on="1"/>
        <pt x="608" y="1375" on="0"/>
        <pt x="872" y="1485" on="0"/>
        <pt x="1176" y="1485" on="0"/>
        <pt x="1440" y="1375" on="0"/>
        <pt x="1548" y="1266" on="1"/>
        <pt x="1657" y="1157" on="0"/>
        <pt x="1765" y="895" on="0"/>
        <pt x="1765" y="741" on="1"/>
        <pt x="1765" y="588" on="0"/>
        <pt x="1657" y="328" on="0"/>
        <pt x="1548" y="219" on="1"/>
        <pt x="1440" y="110" on="0"/>
        <pt x="1176" y="0" on="0"/>
        <pt x="872" y="0" on="0"/>
        <pt x="608" y="110" on="0"/>
        <pt x="500" y="219" on="1"/>
        <pt x="391" y="328" on="0"/>
        <pt x="283" y="588" on="0"/>
      </contour>
      <contour>
        <pt x="385" y="741" on="1"/>
        <pt x="384" y="611" on="0"/>
        <pt x="480" y="385" on="0"/>
        <pt x="573" y="291" on="1"/>
        <pt x="667" y="198" on="0"/>
        <pt x="893" y="102" on="0"/>
        <pt x="1024" y="102" on="1"/>
        <pt x="1156" y="102" on="0"/>
        <pt x="1384" y="198" on="0"/>
        <pt x="1570" y="384" on="0"/>
        <pt x="1662" y="610" on="0"/>
        <pt x="1663" y="741" on="1"/>
        <pt x="1663" y="874" on="0"/>
        <pt x="1569" y="1102" on="0"/>
        <pt x="1477" y="1194" on="1"/>
        <pt x="1384" y="1288" on="0"/>
        <pt x="1156" y="1382" on="0"/>
        <pt x="1024" y="1382" on="1"/>
        <pt x="893" y="1382" on="0"/>
        <pt x="667" y="1288" on="0"/>
        <pt x="573" y="1194" on="1"/>
        <pt x="480" y="1100" on="0"/>
        <pt x="384" y="872" on="0"/>
      </contour>
      <contour>
        <pt x="616" y="741" on="1"/>
        <pt x="616" y="942" on="0"/>
        <pt x="840" y="1184" on="0"/>
        <pt x="1026" y="1184" on="1"/>
        <pt x="1106" y="1184" on="0"/>
        <pt x="1262" y="1148" on="0"/>
        <pt x="1348" y="1108" on="1"/>
        <pt x="1348" y="895" on="1"/>
        <pt x="1264" y="895" on="1"/>
        <pt x="1247" y="1004" on="0"/>
        <pt x="1133" y="1106" on="0"/>
        <pt x="1028" y="1106" on="1"/>
        <pt x="908" y="1106" on="0"/>
        <pt x="788" y="922" on="0"/>
        <pt x="788" y="560" on="0"/>
        <pt x="908" y="380" on="0"/>
        <pt x="1026" y="379" on="1"/>
        <pt x="1124" y="378" on="0"/>
        <pt x="1236" y="474" on="0"/>
        <pt x="1257" y="573" on="1"/>
        <pt x="1376" y="573" on="1"/>
        <pt x="1348" y="442" on="0"/>
        <pt x="1168" y="302" on="0"/>
        <pt x="1026" y="301" on="1"/>
        <pt x="840" y="301" on="0"/>
        <pt x="616" y="541" on="0"/>
      </contour>
    </TTGlyph>
    <TTGlyph name="d" xMin="0" yMin="-225" xMax="1381" yMax="1556">
      <contour>
        <pt x="0" y="-135" on="1"/>
        <pt x="1381" y="-135" on="1"/>
        <pt x="1381" y="-225" on="1"/>
        <pt x="0" y="-225" on="1"/>
      </contour>
      <contour>
        <pt x="102" y="282" on="0"/>
        <pt x="102" y="782" on="0"/>
        <pt x="350" y="1092" on="0"/>
        <pt x="547" y="1092" on="1"/>
        <pt x="670" y="1092" on="0"/>
        <pt x="838" y="996" on="0"/>
        <pt x="891" y="897" on="1"/>
        <pt x="891" y="1450" on="1"/>
        <pt x="717" y="1450" on="1"/>
        <pt x="717" y="1556" on="1"/>
        <pt x="1075" y="1556" on="1"/>
        <pt x="1075" y="106" on="1"/>
        <pt x="1251" y="106" on="1"/>
        <pt x="1251" y="0" on="1"/>
        <pt x="891" y="0" on="1"/>
        <pt x="891" y="166" on="1"/>
        <pt x="838" y="66" on="0"/>
        <pt x="670" y="-30" on="0"/>
        <pt x="547" y="-29" on="1"/>
        <pt x="350" y="-30" on="0"/>
      </contour>
      <contour>
        <pt x="317" y="532" on="1"/>
        <pt x="318" y="312" on="0"/>
        <pt x="462" y="86" on="0"/>
        <pt x="604" y="86" on="1"/>
        <pt x="744" y="86" on="0"/>
        <pt x="892" y="286" on="0"/>
        <pt x="891" y="479" on="1"/>
        <pt x="891" y="584" on="1"/>
        <pt x="892" y="775" on="0"/>
        <pt x="744" y="977" on="0"/>
        <pt x="604" y="977" on="1"/>
        <pt x="462" y="977" on="0"/>
        <pt x="318" y="753" on="0"/>
      </contour>
    </TTGlyph>
    <TTGlyph name="dollar" xMin="0" yMin="-301" xMax="1373" yMax="1556">
      <contour>
        <pt x="0" y="-135" on="1"/>
        <pt x="490" y="-135" on="1"/>
        <pt x="490" y="-225" on="1"/>
        <pt x="0" y="-225" on="1"/>
      </contour>
      <contour>
        <pt x="174" y="922" on="1"/>
        <pt x="174" y="1082" on="0"/>
        <pt x="394" y="1276" on="0"/>
        <pt x="590" y="1288" on="1"/>
        <pt x="590" y="1556" on="1"/>
        <pt x="690" y="1556" on="1"/>
        <pt x="690" y="1288" on="1"/>
        <pt x="790" y="1280" on="0"/>
        <pt x="978" y="1232" on="0"/>
        <pt x="1067" y="1190" on="1"/>
        <pt x="1067" y="928" on="1"/>
        <pt x="958" y="928" on="1"/>
        <pt x="946" y="1044" on="0"/>
        <pt x="808" y="1178" on="0"/>
        <pt x="690" y="1187" on="1"/>
        <pt x="690" y="735" on="1"/>
        <pt x="936" y="668" on="0"/>
        <pt x="1132" y="496" on="0"/>
        <pt x="1133" y="350" on="1"/>
        <pt x="1133" y="184" on="0"/>
        <pt x="901" y="-16" on="0"/>
        <pt x="690" y="-31" on="1"/>
        <pt x="690" y="-301" on="1"/>
        <pt x="590" y="-301" on="1"/>
        <pt x="590" y="-31" on="1"/>
        <pt x="494" y="-30" on="0"/>
        <pt x="288" y="22" on="0"/>
        <pt x="176" y="72" on="1"/>
        <pt x="176" y="348" on="1"/>
        <pt x="284" y="348" on="1"/>
        <pt x="288" y="211" on="0"/>
        <pt x="440" y="71" on="0"/>
        <pt x="590" y="68" on="1"/>
        <pt x="590" y="553" on="1"/>
        <pt x="360" y="616" on="0"/>
        <pt x="174" y="784" on="0"/>
      </contour>
      <contour>
        <pt x="373" y="987" on="1"/>
        <pt x="374" y="907" on="0"/>
        <pt x="478" y="801" on="0"/>
        <pt x="590" y="768" on="1"/>
        <pt x="590" y="1187" on="1"/>
        <pt x="487" y="1180" on="0"/>
        <pt x="373" y="1076" on="0"/>
      </contour>
      <contour>
        <pt x="690" y="68" on="1"/>
        <pt x="802" y="78" on="0"/>
        <pt x="922" y="188" on="0"/>
        <pt x="922" y="283" on="1"/>
        <pt x="922" y="369" on="0"/>
        <pt x="804" y="489" on="0"/>
        <pt x="690" y="520" on="1"/>
      </contour>
      <contour>
        <pt x="790" y="-135" on="1"/>
        <pt x="1373" y="-135" on="1"/>
        <pt x="1373" y="-225" on="1"/>
        <pt x="790" y="-225" on="1"/>
      </contour>
    </TTGlyph>
    <TTGlyph name="e" xMin="0" yMin="-225" xMax="1282" yMax="1092">
      <contour>
        <pt x="0" y="-135" on="1"/>
        <pt x="1282" y="-135" on="1"/>
        <pt x="1282" y="-225" on="1"/>
        <pt x="0" y="-225" on="1"/>
      </contour>
      <contour>
        <pt x="102" y="532" on="1"/>
        <pt x="102" y="784" on="0"/>
        <pt x="380" y="1092" on="0"/>
        <pt x="606" y="1092" on="1"/>
        <pt x="847" y="1092" on="0"/>
        <pt x="1105" y="796" on="0"/>
        <pt x="1110" y="512" on="1"/>
        <pt x="317" y="512" on="1"/>
        <pt x="317" y="504" on="1"/>
        <pt x="317" y="290" on="0"/>
        <pt x="479" y="70" on="0"/>
        <pt x="637" y="70" on="1"/>
        <pt x="758" y="70" on="0"/>
        <pt x="914" y="198" on="0"/>
        <pt x="944" y="322" on="1"/>
        <pt x="1092" y="322" on="1"/>
        <pt x="1048" y="147" on="0"/>
        <pt x="812" y="-29" on="0"/>
        <pt x="618" y="-29" on="1"/>
        <pt x="386" y="-30" on="0"/>
        <pt x="102" y="278" on="0"/>
      </contour>
      <contour>
        <pt x="317" y="618" on="1"/>
        <pt x="893" y="618" on="1"/>
        <pt x="886" y="804" on="0"/>
        <pt x="742" y="992" on="0"/>
        <pt x="606" y="993" on="1"/>
        <pt x="479" y="993" on="0"/>
        <pt x="333" y="803" on="0"/>
      </contour>
    </TTGlyph>
    <TTGlyph name="eight" xMin="0" yMin="-225" xMax="1255" yMax="1520">
      <contour>
        <pt x="0" y="-135" on="1"/>
        <pt x="1255" y="-135" on="1"/>
        <pt x="1255" y="-225" on="1"/>
        <pt x="0" y="-225" on="1"/>
      </contour>
      <contour>
        <pt x="81" y="408" on="1"/>
        <pt x="81" y="566" on="0"/>
        <pt x="176" y="669" on="1"/>
        <pt x="270" y="772" on="0"/>
        <pt x="442" y="795" on="1"/>
        <pt x="290" y="822" on="0"/>
        <pt x="130" y="996" on="0"/>
        <pt x="130" y="1133" on="1"/>
        <pt x="130" y="1313" on="0"/>
        <pt x="254" y="1416" on="1"/>
        <pt x="379" y="1520" on="0"/>
        <pt x="811" y="1520" on="0"/>
        <pt x="936" y="1416" on="1"/>
        <pt x="1060" y="1313" on="0"/>
        <pt x="1060" y="1133" on="1"/>
        <pt x="1060" y="996" on="0"/>
        <pt x="900" y="822" on="0"/>
        <pt x="749" y="795" on="1"/>
        <pt x="920" y="772" on="0"/>
        <pt x="1014" y="669" on="1"/>
        <pt x="1109" y="566" on="0"/>
        <pt x="1109" y="408" on="1"/>
        <pt x="1109" y="304" on="0"/>
        <pt x="1041" y="140" on="0"/>
        <pt x="911" y="28" on="0"/>
        <pt x="815" y="0" on="1"/>
        <pt x="719" y="-29" on="0"/>
        <pt x="595" y="-29" on="1"/>
        <pt x="472" y="-29" on="0"/>
        <pt x="376" y="0" on="1"/>
        <pt x="280" y="28" on="0"/>
        <pt x="148" y="140" on="0"/>
        <pt x="115" y="222" on="1"/>
        <pt x="81" y="304" on="0"/>
      </contour>
      <contour>
        <pt x="292" y="408" on="1"/>
        <pt x="292" y="246" on="0"/>
        <pt x="450" y="70" on="0"/>
        <pt x="740" y="70" on="0"/>
        <pt x="898" y="246" on="0"/>
        <pt x="898" y="408" on="1"/>
        <pt x="898" y="488" on="0"/>
        <pt x="858" y="612" on="0"/>
        <pt x="818" y="656" on="1"/>
        <pt x="780" y="700" on="0"/>
        <pt x="668" y="744" on="0"/>
        <pt x="595" y="745" on="1"/>
        <pt x="522" y="744" on="0"/>
        <pt x="410" y="700" on="0"/>
        <pt x="334" y="612" on="0"/>
        <pt x="312" y="550" on="1"/>
        <pt x="292" y="488" on="0"/>
      </contour>
      <contour>
        <pt x="333" y="1270" on="0"/>
        <pt x="333" y="996" on="0"/>
        <pt x="471" y="844" on="0"/>
        <pt x="595" y="844" on="1"/>
        <pt x="720" y="844" on="0"/>
        <pt x="856" y="996" on="0"/>
        <pt x="857" y="1133" on="1"/>
        <pt x="856" y="1270" on="0"/>
        <pt x="720" y="1422" on="0"/>
        <pt x="595" y="1421" on="1"/>
        <pt x="471" y="1422" on="0"/>
      </contour>
    </TTGlyph>
    <TTGlyph name="ellipsis" xMin="0" yMin="-225" xMax="2118" yMax="238">
      <contour>
        <pt x="0" y="-135" on="1"/>
        <pt x="2118" y="-135" on="1"/>
        <pt x="2118" y="-225" on="1"/>
        <pt x="0" y="-225" on="1"/>
      </contour>
      <contour>
        <pt x="209" y="104" on="1"/>
        <pt x="210" y="160" on="0"/>
        <pt x="286" y="238" on="0"/>
        <pt x="342" y="238" on="1"/>
        <pt x="397" y="238" on="0"/>
        <pt x="475" y="160" on="0"/>
        <pt x="475" y="104" on="1"/>
        <pt x="475" y="49" on="0"/>
        <pt x="397" y="-29" on="0"/>
        <pt x="342" y="-29" on="1"/>
        <pt x="285" y="-28" on="0"/>
        <pt x="209" y="48" on="0"/>
      </contour>
      <contour>
        <pt x="891" y="104" on="1"/>
        <pt x="892" y="160" on="0"/>
        <pt x="968" y="238" on="0"/>
        <pt x="1024" y="238" on="1"/>
        <pt x="1079" y="238" on="0"/>
        <pt x="1157" y="160" on="0"/>
        <pt x="1157" y="104" on="1"/>
        <pt x="1157" y="49" on="0"/>
        <pt x="1079" y="-29" on="0"/>
        <pt x="1024" y="-29" on="1"/>
        <pt x="967" y="-28" on="0"/>
        <pt x="891" y="48" on="0"/>
      </contour>
      <contour>
        <pt x="1573" y="104" on="1"/>
        <pt x="1574" y="160" on="0"/>
        <pt x="1650" y="238" on="0"/>
        <pt x="1706" y="238" on="1"/>
        <pt x="1761" y="238" on="0"/>
        <pt x="1839" y="160" on="0"/>
        <pt x="1839" y="104" on="1"/>
        <pt x="1839" y="49" on="0"/>
        <pt x="1761" y="-29" on="0"/>
        <pt x="1706" y="-29" on="1"/>
        <pt x="1649" y="-28" on="0"/>
        <pt x="1573" y="48" on="0"/>
      </contour>
    </TTGlyph>
    <TTGlyph name="endash" xMin="0" yMin="-225" xMax="1094" yMax="610">
      <contour>
        <pt x="0" y="-135" on="1"/>
        <pt x="1094" y="-135" on="1"/>
        <pt x="1094" y="-225" on="1"/>
        <pt x="0" y="-225" on="1"/>
      </contour>
      <contour>
        <pt x="90" y="477" on="1"/>
        <pt x="90" y="610" on="1"/>
        <pt x="934" y="610" on="1"/>
        <pt x="934" y="477" on="1"/>
      </contour>
    </TTGlyph>
    <TTGlyph name="equal" xMin="0" yMin="-225" xMax="1786" yMax="926">
      <contour>
        <pt x="0" y="-135" on="1"/>
        <pt x="1786" y="-135" on="1"/>
        <pt x="1786" y="-225" on="1"/>
        <pt x="0" y="-225" on="1"/>
      </contour>
      <contour>
        <pt x="217" y="358" on="1"/>
        <pt x="217" y="518" on="1"/>
        <pt x="1499" y="518" on="1"/>
        <pt x="1499" y="358" on="1"/>
      </contour>
      <contour>
        <pt x="217" y="766" on="1"/>
        <pt x="217" y="926" on="1"/>
        <pt x="1499" y="926" on="1"/>
        <pt x="1499" y="766" on="1"/>
      </contour>
    </TTGlyph>
    <TTGlyph name="f" xMin="0" yMin="-225" xMax="881" yMax="1556">
      <contour>
        <pt x="0" y="-135" on="1"/>
        <pt x="881" y="-135" on="1"/>
        <pt x="881" y="-225" on="1"/>
        <pt x="0" y="-225" on="1"/>
      </contour>
      <contour>
        <pt x="74" y="0" on="1"/>
        <pt x="74" y="106" on="1"/>
        <pt x="250" y="106" on="1"/>
        <pt x="250" y="956" on="1"/>
        <pt x="74" y="956" on="1"/>
        <pt x="74" y="1063" on="1"/>
        <pt x="250" y="1063" on="1"/>
        <pt x="250" y="1196" on="1"/>
        <pt x="250" y="1374" on="0"/>
        <pt x="434" y="1556" on="0"/>
        <pt x="614" y="1556" on="1"/>
        <pt x="681" y="1556" on="0"/>
        <pt x="815" y="1532" on="0"/>
        <pt x="881" y="1507" on="1"/>
        <pt x="881" y="1305" on="1"/>
        <pt x="784" y="1305" on="1"/>
        <pt x="784" y="1380" on="0"/>
        <pt x="700" y="1458" on="0"/>
        <pt x="621" y="1458" on="1"/>
        <pt x="518" y="1458" on="0"/>
        <pt x="434" y="1346" on="0"/>
        <pt x="434" y="1200" on="1"/>
        <pt x="434" y="1063" on="1"/>
        <pt x="731" y="1063" on="1"/>
        <pt x="731" y="956" on="1"/>
        <pt x="434" y="956" on="1"/>
        <pt x="434" y="106" on="1"/>
        <pt x="670" y="106" on="1"/>
        <pt x="670" y="0" on="1"/>
      </contour>
    </TTGlyph>
    <TTGlyph name="fi" xMin="0" yMin="-225" xMax="1436" yMax="1556">
      <contour>
        <pt x="0" y="-135" on="1"/>
        <pt x="1436" y="-135" on="1"/>
        <pt x="1436" y="-225" on="1"/>
        <pt x="0" y="-225" on="1"/>
      </contour>
      <contour>
        <pt x="74" y="0" on="1"/>
        <pt x="74" y="106" on="1"/>
        <pt x="250" y="106" on="1"/>
        <pt x="250" y="956" on="1"/>
        <pt x="74" y="956" on="1"/>
        <pt x="74" y="1063" on="1"/>
        <pt x="250" y="1063" on="1"/>
        <pt x="250" y="1159" on="1"/>
        <pt x="250" y="1356" on="0"/>
        <pt x="484" y="1556" on="0"/>
        <pt x="713" y="1556" on="1"/>
        <pt x="800" y="1556" on="0"/>
        <pt x="982" y="1530" on="0"/>
        <pt x="1071" y="1503" on="1"/>
        <pt x="1071" y="1286" on="1"/>
        <pt x="977" y="1287" on="1"/>
        <pt x="974" y="1374" on="0"/>
        <pt x="852" y="1458" on="0"/>
        <pt x="729" y="1458" on="1"/>
        <pt x="576" y="1458" on="0"/>
        <pt x="434" y="1316" on="0"/>
        <pt x="434" y="1163" on="1"/>
        <pt x="434" y="1063" on="1"/>
        <pt x="1145" y="1063" on="1"/>
        <pt x="1145" y="106" on="1"/>
        <pt x="1319" y="106" on="1"/>
        <pt x="1319" y="0" on="1"/>
        <pt x="784" y="0" on="1"/>
        <pt x="784" y="106" on="1"/>
        <pt x="961" y="106" on="1"/>
        <pt x="961" y="956" on="1"/>
        <pt x="434" y="956" on="1"/>
        <pt x="434" y="106" on="1"/>
        <pt x="608" y="106" on="1"/>
        <pt x="608" y="0" on="1"/>
      </contour>
    </TTGlyph>
    <TTGlyph name="five" xMin="70" yMin="-458" xMax="1065" yMax="1063">
      <contour>
        <pt x="70" y="-21" on="1"/>
        <pt x="182" y="-21" on="1"/>
        <pt x="182" y="-183" on="0"/>
        <pt x="365" y="-348" on="0"/>
        <pt x="524" y="-348" on="1"/>
        <pt x="600" y="-348" on="0"/>
        <pt x="722" y="-297" on="0"/>
        <pt x="808" y="-201" on="0"/>
        <pt x="854" y="-63" on="0"/>
        <pt x="854" y="23" on="1"/>
        <pt x="854" y="220" on="0"/>
        <pt x="674" y="423" on="0"/>
        <pt x="496" y="423" on="1"/>
        <pt x="184" y="423" on="1"/>
        <pt x="184" y="1063" on="1"/>
        <pt x="991" y="1063" on="1"/>
        <pt x="991" y="782" on="1"/>
        <pt x="855" y="782" on="1"/>
        <pt x="855" y="940" on="1"/>
        <pt x="368" y="940" on="1"/>
        <pt x="368" y="525" on="1"/>
        <pt x="584" y="524" on="1"/>
        <pt x="599" y="524" on="1"/>
        <pt x="660" y="524" on="0"/>
        <pt x="770" y="493" on="0"/>
        <pt x="865" y="444" on="0"/>
        <pt x="939" y="383" on="0"/>
        <pt x="964" y="354" on="1"/>
        <pt x="1065" y="233" on="0"/>
        <pt x="1065" y="25" on="1"/>
        <pt x="1065" y="-92" on="0"/>
        <pt x="994" y="-272" on="0"/>
        <pt x="856" y="-395" on="0"/>
        <pt x="652" y="-458" on="0"/>
        <pt x="520" y="-458" on="1"/>
        <pt x="401" y="-458" on="0"/>
        <pt x="179" y="-402" on="0"/>
        <pt x="70" y="-345" on="1"/>
      </contour>
    </TTGlyph>
    <TTGlyph name="fl" xMin="0" yMin="-225" xMax="1436" yMax="1556">
      <contour>
        <pt x="0" y="-135" on="1"/>
        <pt x="1436" y="-135" on="1"/>
        <pt x="1436" y="-225" on="1"/>
        <pt x="0" y="-225" on="1"/>
      </contour>
      <contour>
        <pt x="74" y="0" on="1"/>
        <pt x="74" y="106" on="1"/>
        <pt x="250" y="106" on="1"/>
        <pt x="250" y="956" on="1"/>
        <pt x="74" y="956" on="1"/>
        <pt x="74" y="1063" on="1"/>
        <pt x="250" y="1063" on="1"/>
        <pt x="250" y="1159" on="1"/>
        <pt x="250" y="1360" on="0"/>
        <pt x="490" y="1556" on="0"/>
        <pt x="733" y="1556" on="1"/>
        <pt x="1130" y="1556" on="1"/>
        <pt x="1130" y="106" on="1"/>
        <pt x="1305" y="106" on="1"/>
        <pt x="1305" y="0" on="1"/>
        <pt x="770" y="0" on="1"/>
        <pt x="770" y="106" on="1"/>
        <pt x="946" y="106" on="1"/>
        <pt x="946" y="1450" on="1"/>
        <pt x="731" y="1450" on="1"/>
        <pt x="568" y="1450" on="0"/>
        <pt x="434" y="1320" on="0"/>
        <pt x="434" y="1163" on="1"/>
        <pt x="434" y="1063" on="1"/>
        <pt x="729" y="1063" on="1"/>
        <pt x="729" y="956" on="1"/>
        <pt x="434" y="956" on="1"/>
        <pt x="434" y="106" on="1"/>
        <pt x="608" y="106" on="1"/>
        <pt x="608" y="0" on="1"/>
      </contour>
    </TTGlyph>
    <TTGlyph name="four" xMin="0" yMin="-456" xMax="1335" yMax="1063">
      <contour>
        <pt x="0" y="-135" on="1"/>
        <pt x="567" y="-135" on="1"/>
        <pt x="567" y="-225" on="1"/>
        <pt x="0" y="-225" on="1"/>
      </contour>
      <contour>
        <pt x="90" y="0" on="1"/>
        <pt x="90" y="108" on="1"/>
        <pt x="709" y="1063" on="1"/>
        <pt x="907" y="1063" on="1"/>
        <pt x="907" y="105" on="1"/>
        <pt x="1192" y="105" on="1"/>
        <pt x="1192" y="0" on="1"/>
        <pt x="906" y="0" on="1"/>
        <pt x="906" y="-456" on="1"/>
        <pt x="707" y="-456" on="1"/>
        <pt x="707" y="0" on="1"/>
      </contour>
      <contour>
        <pt x="232" y="105" on="1"/>
        <pt x="707" y="105" on="1"/>
        <pt x="707" y="845" on="1"/>
      </contour>
      <contour>
        <pt x="1036" y="-135" on="1"/>
        <pt x="1335" y="-135" on="1"/>
        <pt x="1335" y="-225" on="1"/>
        <pt x="1036" y="-225" on="1"/>
      </contour>
    </TTGlyph>
    <TTGlyph name="g" xMin="109" yMin="-455" xMax="1251" yMax="1092">
      <contour>
        <pt x="109" y="-208" on="1"/>
        <pt x="109" y="-62" on="0"/>
        <pt x="271" y="54" on="1"/>
        <pt x="210" y="100" on="0"/>
        <pt x="210" y="181" on="1"/>
        <pt x="210" y="266" on="0"/>
        <pt x="331" y="376" on="1"/>
        <pt x="294" y="396" on="0"/>
        <pt x="263" y="422" on="1"/>
        <pt x="139" y="526" on="0"/>
        <pt x="139" y="884" on="0"/>
        <pt x="387" y="1092" on="0"/>
        <pt x="604" y="1092" on="1"/>
        <pt x="719" y="1092" on="0"/>
        <pt x="808" y="1063" on="1"/>
        <pt x="1251" y="1063" on="1"/>
        <pt x="1251" y="956" on="1"/>
        <pt x="979" y="956" on="1"/>
        <pt x="1069" y="858" on="0"/>
        <pt x="1069" y="705" on="1"/>
        <pt x="1069" y="526" on="0"/>
        <pt x="821" y="318" on="0"/>
        <pt x="604" y="318" on="1"/>
        <pt x="489" y="318" on="0"/>
        <pt x="400" y="347" on="1"/>
        <pt x="342" y="282" on="0"/>
        <pt x="342" y="216" on="1"/>
        <pt x="342" y="156" on="0"/>
        <pt x="604" y="156" on="1"/>
        <pt x="1186" y="156" on="0"/>
        <pt x="1186" y="-120" on="1"/>
        <pt x="1186" y="-308" on="0"/>
        <pt x="998" y="-382" on="1"/>
        <pt x="813" y="-455" on="0"/>
        <pt x="609" y="-455" on="1"/>
        <pt x="607" y="-455" on="0"/>
        <pt x="604" y="-455" on="1"/>
        <pt x="327" y="-455" on="0"/>
        <pt x="109" y="-285" on="0"/>
      </contour>
      <contour>
        <pt x="306" y="-146" on="1"/>
        <pt x="306" y="-231" on="0"/>
        <pt x="464" y="-357" on="0"/>
        <pt x="604" y="-357" on="1"/>
        <pt x="802" y="-357" on="0"/>
        <pt x="920" y="-286" on="1"/>
        <pt x="1037" y="-216" on="0"/>
        <pt x="1037" y="-122" on="1"/>
        <pt x="1036" y="-18" on="0"/>
        <pt x="604" y="-18" on="1"/>
        <pt x="438" y="-18" on="0"/>
        <pt x="339" y="18" on="1"/>
        <pt x="306" y="-38" on="0"/>
      </contour>
      <contour>
        <pt x="342" y="705" on="1"/>
        <pt x="342" y="568" on="0"/>
        <pt x="482" y="416" on="0"/>
        <pt x="604" y="416" on="1"/>
        <pt x="728" y="416" on="0"/>
        <pt x="866" y="568" on="0"/>
        <pt x="866" y="705" on="1"/>
        <pt x="866" y="841" on="0"/>
        <pt x="728" y="993" on="0"/>
        <pt x="604" y="993" on="1"/>
        <pt x="482" y="993" on="0"/>
        <pt x="342" y="841" on="0"/>
      </contour>
    </TTGlyph>
    <TTGlyph name="greater" xMin="0" yMin="-225" xMax="1786" yMax="1190">
      <contour>
        <pt x="0" y="-135" on="1"/>
        <pt x="1786" y="-135" on="1"/>
        <pt x="1786" y="-225" on="1"/>
        <pt x="0" y="-225" on="1"/>
      </contour>
      <contour>
        <pt x="217" y="94" on="1"/>
        <pt x="217" y="264" on="1"/>
        <pt x="1255" y="641" on="1"/>
        <pt x="217" y="1020" on="1"/>
        <pt x="217" y="1190" on="1"/>
        <pt x="1499" y="725" on="1"/>
        <pt x="1499" y="559" on="1"/>
      </contour>
    </TTGlyph>
    <TTGlyph name="h" xMin="0" yMin="-225" xMax="1389" yMax="1556">
      <contour>
        <pt x="0" y="-135" on="1"/>
        <pt x="1389" y="-135" on="1"/>
        <pt x="1389" y="-225" on="1"/>
        <pt x="0" y="-225" on="1"/>
      </contour>
      <contour>
        <pt x="74" y="1450" on="1"/>
        <pt x="74" y="1556" on="1"/>
        <pt x="434" y="1556" on="1"/>
        <pt x="434" y="874" on="1"/>
        <pt x="484" y="982" on="0"/>
        <pt x="648" y="1092" on="0"/>
        <pt x="756" y="1092" on="1"/>
        <pt x="932" y="1092" on="0"/>
        <pt x="1098" y="890" on="0"/>
        <pt x="1098" y="676" on="1"/>
        <pt x="1098" y="106" on="1"/>
        <pt x="1262" y="106" on="1"/>
        <pt x="1262" y="0" on="1"/>
        <pt x="754" y="0" on="1"/>
        <pt x="754" y="106" on="1"/>
        <pt x="913" y="106" on="1"/>
        <pt x="913" y="618" on="1"/>
        <pt x="914" y="812" on="0"/>
        <pt x="818" y="956" on="0"/>
        <pt x="696" y="956" on="1"/>
        <pt x="568" y="956" on="0"/>
        <pt x="434" y="770" on="0"/>
        <pt x="434" y="592" on="1"/>
        <pt x="434" y="106" on="1"/>
        <pt x="594" y="106" on="1"/>
        <pt x="594" y="0" on="1"/>
        <pt x="84" y="0" on="1"/>
        <pt x="84" y="106" on="1"/>
        <pt x="250" y="106" on="1"/>
        <pt x="250" y="1450" on="1"/>
      </contour>
    </TTGlyph>
    <TTGlyph name="hyphen" xMin="0" yMin="-225" xMax="762" yMax="627">
      <contour>
        <pt x="0" y="-135" on="1"/>
        <pt x="762" y="-135" on="1"/>
        <pt x="762" y="-225" on="1"/>
        <pt x="0" y="-225" on="1"/>
      </contour>
      <contour>
        <pt x="90" y="471" on="1"/>
        <pt x="90" y="627" on="1"/>
        <pt x="602" y="627" on="1"/>
        <pt x="602" y="471" on="1"/>
      </contour>
    </TTGlyph>
    <TTGlyph name="i" xMin="0" yMin="-225" xMax="725" yMax="1507">
      <contour>
        <pt x="0" y="-135" on="1"/>
        <pt x="725" y="-135" on="1"/>
        <pt x="725" y="-225" on="1"/>
        <pt x="0" y="-225" on="1"/>
      </contour>
      <contour>
        <pt x="74" y="0" on="1"/>
        <pt x="74" y="106" on="1"/>
        <pt x="250" y="106" on="1"/>
        <pt x="250" y="956" on="1"/>
        <pt x="74" y="956" on="1"/>
        <pt x="74" y="1063" on="1"/>
        <pt x="434" y="1063" on="1"/>
        <pt x="434" y="106" on="1"/>
        <pt x="608" y="106" on="1"/>
        <pt x="608" y="0" on="1"/>
      </contour>
      <contour>
        <pt x="199" y="1393" on="1"/>
        <pt x="198" y="1439" on="0"/>
        <pt x="266" y="1507" on="0"/>
        <pt x="313" y="1507" on="1"/>
        <pt x="358" y="1507" on="0"/>
        <pt x="426" y="1439" on="0"/>
        <pt x="426" y="1393" on="1"/>
        <pt x="426" y="1346" on="0"/>
        <pt x="360" y="1280" on="0"/>
        <pt x="266" y="1280" on="0"/>
        <pt x="198" y="1346" on="0"/>
      </contour>
    </TTGlyph>
    <TTGlyph name="j" xMin="-197" yMin="-455" xMax="434" yMax="1507">
      <contour>
        <pt x="-197" y="-170" on="1"/>
        <pt x="-102" y="-170" on="1"/>
        <pt x="-95" y="-266" on="0"/>
        <pt x="-10" y="-356" on="0"/>
        <pt x="72" y="-356" on="1"/>
        <pt x="163" y="-356" on="0"/>
        <pt x="250" y="-233" on="0"/>
        <pt x="250" y="-104" on="1"/>
        <pt x="250" y="956" on="1"/>
        <pt x="76" y="956" on="1"/>
        <pt x="76" y="1063" on="1"/>
        <pt x="434" y="1063" on="1"/>
        <pt x="434" y="-104" on="1"/>
        <pt x="434" y="-268" on="0"/>
        <pt x="239" y="-455" on="0"/>
        <pt x="68" y="-455" on="1"/>
        <pt x="-4" y="-455" on="0"/>
        <pt x="-135" y="-422" on="0"/>
        <pt x="-197" y="-389" on="1"/>
      </contour>
      <contour>
        <pt x="205" y="1393" on="1"/>
        <pt x="205" y="1439" on="0"/>
        <pt x="272" y="1507" on="0"/>
        <pt x="319" y="1507" on="1"/>
        <pt x="365" y="1507" on="0"/>
        <pt x="432" y="1439" on="0"/>
        <pt x="432" y="1393" on="1"/>
        <pt x="432" y="1346" on="0"/>
        <pt x="367" y="1280" on="0"/>
        <pt x="319" y="1280" on="1"/>
        <pt x="272" y="1280" on="0"/>
        <pt x="205" y="1346" on="0"/>
      </contour>
    </TTGlyph>
    <TTGlyph name="k" xMin="0" yMin="-225" xMax="1311" yMax="1556">
      <contour>
        <pt x="0" y="-135" on="1"/>
        <pt x="1311" y="-135" on="1"/>
        <pt x="1311" y="-225" on="1"/>
        <pt x="0" y="-225" on="1"/>
      </contour>
      <contour>
        <pt x="59" y="1450" on="1"/>
        <pt x="59" y="1556" on="1"/>
        <pt x="420" y="1556" on="1"/>
        <pt x="420" y="543" on="1"/>
        <pt x="868" y="956" on="1"/>
        <pt x="715" y="956" on="1"/>
        <pt x="715" y="1063" on="1"/>
        <pt x="1196" y="1063" on="1"/>
        <pt x="1196" y="956" on="1"/>
        <pt x="1014" y="956" on="1"/>
        <pt x="698" y="664" on="1"/>
        <pt x="1102" y="106" on="1"/>
        <pt x="1255" y="106" on="1"/>
        <pt x="1255" y="0" on="1"/>
        <pt x="731" y="0" on="1"/>
        <pt x="731" y="106" on="1"/>
        <pt x="883" y="106" on="1"/>
        <pt x="565" y="543" on="1"/>
        <pt x="420" y="408" on="1"/>
        <pt x="420" y="106" on="1"/>
        <pt x="586" y="106" on="1"/>
        <pt x="586" y="0" on="1"/>
        <pt x="70" y="0" on="1"/>
        <pt x="70" y="106" on="1"/>
        <pt x="236" y="106" on="1"/>
        <pt x="236" y="1450" on="1"/>
      </contour>
    </TTGlyph>
    <TTGlyph name="l" xMin="0" yMin="-225" xMax="725" yMax="1556">
      <contour>
        <pt x="0" y="-135" on="1"/>
        <pt x="725" y="-135" on="1"/>
        <pt x="725" y="-225" on="1"/>
        <pt x="0" y="-225" on="1"/>
      </contour>
      <contour>
        <pt x="59" y="0" on="1"/>
        <pt x="59" y="106" on="1"/>
        <pt x="236" y="106" on="1"/>
        <pt x="236" y="1450" on="1"/>
        <pt x="59" y="1450" on="1"/>
        <pt x="59" y="1556" on="1"/>
        <pt x="420" y="1556" on="1"/>
        <pt x="420" y="106" on="1"/>
        <pt x="594" y="106" on="1"/>
        <pt x="594" y="0" on="1"/>
      </contour>
    </TTGlyph>
    <TTGlyph name="less" xMin="0" yMin="-225" xMax="1786" yMax="1190">
      <contour>
        <pt x="0" y="-135" on="1"/>
        <pt x="1786" y="-135" on="1"/>
        <pt x="1786" y="-225" on="1"/>
        <pt x="0" y="-225" on="1"/>
      </contour>
      <contour>
        <pt x="217" y="559" on="1"/>
        <pt x="217" y="725" on="1"/>
        <pt x="1499" y="1190" on="1"/>
        <pt x="1499" y="1020" on="1"/>
        <pt x="461" y="641" on="1"/>
        <pt x="1499" y="264" on="1"/>
        <pt x="1499" y="94" on="1"/>
      </contour>
    </TTGlyph>
    <TTGlyph name="m" xMin="0" yMin="-225" xMax="2012" yMax="1092">
      <contour>
        <pt x="0" y="-135" on="1"/>
        <pt x="2012" y="-135" on="1"/>
        <pt x="2012" y="-225" on="1"/>
        <pt x="0" y="-225" on="1"/>
      </contour>
      <contour>
        <pt x="74" y="958" on="1"/>
        <pt x="74" y="1063" on="1"/>
        <pt x="434" y="1063" on="1"/>
        <pt x="434" y="874" on="1"/>
        <pt x="485" y="980" on="0"/>
        <pt x="643" y="1092" on="0"/>
        <pt x="743" y="1092" on="1"/>
        <pt x="867" y="1092" on="0"/>
        <pt x="1033" y="968" on="0"/>
        <pt x="1061" y="856" on="1"/>
        <pt x="1114" y="972" on="0"/>
        <pt x="1278" y="1092" on="0"/>
        <pt x="1389" y="1092" on="1"/>
        <pt x="1556" y="1092" on="0"/>
        <pt x="1720" y="884" on="0"/>
        <pt x="1720" y="676" on="1"/>
        <pt x="1720" y="106" on="1"/>
        <pt x="1886" y="106" on="1"/>
        <pt x="1886" y="0" on="1"/>
        <pt x="1376" y="0" on="1"/>
        <pt x="1376" y="106" on="1"/>
        <pt x="1536" y="106" on="1"/>
        <pt x="1536" y="655" on="1"/>
        <pt x="1536" y="818" on="0"/>
        <pt x="1440" y="956" on="0"/>
        <pt x="1329" y="956" on="1"/>
        <pt x="1206" y="956" on="0"/>
        <pt x="1078" y="770" on="0"/>
        <pt x="1077" y="592" on="1"/>
        <pt x="1077" y="106" on="1"/>
        <pt x="1237" y="106" on="1"/>
        <pt x="1237" y="0" on="1"/>
        <pt x="733" y="0" on="1"/>
        <pt x="733" y="106" on="1"/>
        <pt x="893" y="106" on="1"/>
        <pt x="893" y="662" on="1"/>
        <pt x="893" y="820" on="0"/>
        <pt x="797" y="956" on="0"/>
        <pt x="686" y="956" on="1"/>
        <pt x="562" y="956" on="0"/>
        <pt x="434" y="770" on="0"/>
        <pt x="434" y="592" on="1"/>
        <pt x="434" y="106" on="1"/>
        <pt x="594" y="106" on="1"/>
        <pt x="594" y="0" on="1"/>
        <pt x="84" y="0" on="1"/>
        <pt x="84" y="106" on="1"/>
        <pt x="250" y="106" on="1"/>
        <pt x="250" y="958" on="1"/>
      </contour>
    </TTGlyph>
    <TTGlyph name="multiply" xMin="0" yMin="-225" xMax="1786" yMax="1217">
      <contour>
        <pt x="0" y="-135" on="1"/>
        <pt x="1786" y="-135" on="1"/>
        <pt x="1786" y="-225" on="1"/>
        <pt x="0" y="-225" on="1"/>
      </contour>
      <contour>
        <pt x="283" y="180" on="1"/>
        <pt x="743" y="641" on="1"/>
        <pt x="283" y="1104" on="1"/>
        <pt x="397" y="1217" on="1"/>
        <pt x="858" y="756" on="1"/>
        <pt x="1319" y="1217" on="1"/>
        <pt x="1434" y="1104" on="1"/>
        <pt x="971" y="641" on="1"/>
        <pt x="1434" y="180" on="1"/>
        <pt x="1319" y="68" on="1"/>
        <pt x="858" y="528" on="1"/>
        <pt x="397" y="68" on="1"/>
      </contour>
    </TTGlyph>
    <TTGlyph name="n" xMin="0" yMin="-225" xMax="1389" yMax="1092">
      <contour>
        <pt x="0" y="-135" on="1"/>
        <pt x="1389" y="-135" on="1"/>
        <pt x="1389" y="-225" on="1"/>
        <pt x="0" y="-225" on="1"/>
      </contour>
      <contour>
        <pt x="74" y="956" on="1"/>
        <pt x="74" y="1063" on="1"/>
        <pt x="434" y="1063" on="1"/>
        <pt x="434" y="874" on="1"/>
        <pt x="484" y="982" on="0"/>
        <pt x="648" y="1092" on="0"/>
        <pt x="756" y="1092" on="1"/>
        <pt x="932" y="1092" on="0"/>
        <pt x="1098" y="890" on="0"/>
        <pt x="1098" y="676" on="1"/>
        <pt x="1098" y="106" on="1"/>
        <pt x="1262" y="106" on="1"/>
        <pt x="1262" y="0" on="1"/>
        <pt x="754" y="0" on="1"/>
        <pt x="754" y="106" on="1"/>
        <pt x="913" y="106" on="1"/>
        <pt x="913" y="618" on="1"/>
        <pt x="913" y="814" on="0"/>
        <pt x="817" y="958" on="0"/>
        <pt x="696" y="958" on="1"/>
        <pt x="568" y="958" on="0"/>
        <pt x="434" y="770" on="0"/>
        <pt x="434" y="592" on="1"/>
        <pt x="434" y="106" on="1"/>
        <pt x="594" y="106" on="1"/>
        <pt x="594" y="0" on="1"/>
        <pt x="84" y="0" on="1"/>
        <pt x="84" y="106" on="1"/>
        <pt x="250" y="106" on="1"/>
        <pt x="250" y="956" on="1"/>
      </contour>
    </TTGlyph>
    <TTGlyph name="nine" xMin="81" yMin="-457" xMax="1094" yMax="1092">
      <contour>
        <pt x="81" y="592" on="1"/>
        <pt x="81" y="819" on="0"/>
        <pt x="220" y="955" on="1"/>
        <pt x="360" y="1092" on="0"/>
        <pt x="593" y="1092" on="1"/>
        <pt x="846" y="1092" on="0"/>
        <pt x="981" y="903" on="1"/>
        <pt x="1094" y="716" on="0"/>
        <pt x="1094" y="365" on="1"/>
        <pt x="1094" y="-57" on="0"/>
        <pt x="956" y="-242" on="1"/>
        <pt x="795" y="-457" on="0"/>
        <pt x="503" y="-457" on="1"/>
        <pt x="424" y="-457" on="0"/>
        <pt x="250" y="-427" on="0"/>
        <pt x="159" y="-397" on="1"/>
        <pt x="159" y="-149" on="1"/>
        <pt x="271" y="-149" on="1"/>
        <pt x="284" y="-251" on="0"/>
        <pt x="414" y="-358" on="0"/>
        <pt x="523" y="-358" on="1"/>
        <pt x="717" y="-358" on="0"/>
        <pt x="910" y="-65" on="0"/>
        <pt x="910" y="241" on="1"/>
        <pt x="777" y="92" on="0"/>
        <pt x="560" y="92" on="1"/>
        <pt x="338" y="92" on="0"/>
        <pt x="209" y="226" on="1"/>
        <pt x="81" y="360" on="0"/>
      </contour>
      <contour>
        <pt x="292" y="787" on="0"/>
        <pt x="292" y="397" on="0"/>
        <pt x="442" y="190" on="0"/>
        <pt x="728" y="190" on="0"/>
        <pt x="878" y="390" on="0"/>
        <pt x="878" y="580" on="1"/>
        <pt x="878" y="780" on="0"/>
        <pt x="727" y="993" on="0"/>
        <pt x="585" y="993" on="1"/>
        <pt x="442" y="993" on="0"/>
      </contour>
    </TTGlyph>
    <TTGlyph name="nonbreakingspace" xMin="0" yMin="-225" xMax="721" yMax="-135">
      <contour>
        <pt x="0" y="-135" on="1"/>
        <pt x="721" y="-135" on="1"/>
        <pt x="721" y="-225" on="1"/>
        <pt x="0" y="-225" on="1"/>
      </contour>
    </TTGlyph>
    <TTGlyph name="nonmarkingreturn" xMin="0" yMin="-225" xMax="2118" yMax="-135">
      <contour>
        <pt x="0" y="-135" on="1"/>
        <pt x="2118" y="-135" on="1"/>
        <pt x="2118" y="-225" on="1"/>
        <pt x="0" y="-225" on="1"/>
      </contour>
    </TTGlyph>
    <TTGlyph name="numbersign" xMin="0" yMin="-225" xMax="1786" yMax="1470">
      <contour>
        <pt x="0" y="-135" on="1"/>
        <pt x="1786" y="-135" on="1"/>
        <pt x="1786" y="-225" on="1"/>
        <pt x="0" y="-225" on="1"/>
      </contour>
      <contour>
        <pt x="158" y="414" on="1"/>
        <pt x="158" y="567" on="1"/>
        <pt x="506" y="567" on="1"/>
        <pt x="588" y="901" on="1"/>
        <pt x="272" y="901" on="1"/>
        <pt x="272" y="1055" on="1"/>
        <pt x="627" y="1055" on="1"/>
        <pt x="731" y="1470" on="1"/>
        <pt x="901" y="1470" on="1"/>
        <pt x="799" y="1055" on="1"/>
        <pt x="1081" y="1055" on="1"/>
        <pt x="1184" y="1470" on="1"/>
        <pt x="1356" y="1470" on="1"/>
        <pt x="1251" y="1055" on="1"/>
        <pt x="1559" y="1055" on="1"/>
        <pt x="1559" y="901" on="1"/>
        <pt x="1212" y="901" on="1"/>
        <pt x="1130" y="567" on="1"/>
        <pt x="1444" y="567" on="1"/>
        <pt x="1444" y="414" on="1"/>
        <pt x="1092" y="414" on="1"/>
        <pt x="989" y="0" on="1"/>
        <pt x="817" y="0" on="1"/>
        <pt x="922" y="414" on="1"/>
        <pt x="639" y="414" on="1"/>
        <pt x="535" y="0" on="1"/>
        <pt x="365" y="0" on="1"/>
        <pt x="467" y="414" on="1"/>
      </contour>
      <contour>
        <pt x="676" y="567" on="1"/>
        <pt x="961" y="567" on="1"/>
        <pt x="1042" y="901" on="1"/>
        <pt x="760" y="901" on="1"/>
      </contour>
    </TTGlyph>
    <TTGlyph name="o" xMin="0" yMin="-225" xMax="1303" yMax="1092">
      <contour>
        <pt x="0" y="-135" on="1"/>
        <pt x="1303" y="-135" on="1"/>
        <pt x="1303" y="-225" on="1"/>
        <pt x="0" y="-225" on="1"/>
      </contour>
      <contour>
        <pt x="102" y="278" on="0"/>
        <pt x="102" y="786" on="0"/>
        <pt x="382" y="1092" on="0"/>
        <pt x="850" y="1092" on="0"/>
        <pt x="1130" y="786" on="0"/>
        <pt x="1130" y="278" on="0"/>
        <pt x="850" y="-30" on="0"/>
        <pt x="616" y="-29" on="1"/>
        <pt x="384" y="-30" on="0"/>
      </contour>
      <contour>
        <pt x="317" y="532" on="1"/>
        <pt x="317" y="304" on="0"/>
        <pt x="469" y="70" on="0"/>
        <pt x="616" y="70" on="1"/>
        <pt x="764" y="70" on="0"/>
        <pt x="916" y="304" on="0"/>
        <pt x="915" y="532" on="1"/>
        <pt x="916" y="760" on="0"/>
        <pt x="764" y="992" on="0"/>
        <pt x="616" y="993" on="1"/>
        <pt x="468" y="992" on="0"/>
        <pt x="316" y="760" on="0"/>
      </contour>
    </TTGlyph>
    <TTGlyph name="one" xMin="0" yMin="-225" xMax="890" yMax="1063">
      <contour>
        <pt x="0" y="-135" on="1"/>
        <pt x="890" y="-135" on="1"/>
        <pt x="890" y="-225" on="1"/>
        <pt x="0" y="-225" on="1"/>
      </contour>
      <contour>
        <pt x="102" y="943" on="1"/>
        <pt x="400" y="1063" on="1"/>
        <pt x="537" y="1063" on="1"/>
        <pt x="537" y="106" on="1"/>
        <pt x="731" y="106" on="1"/>
        <pt x="731" y="0" on="1"/>
        <pt x="120" y="0" on="1"/>
        <pt x="120" y="106" on="1"/>
        <pt x="342" y="106" on="1"/>
        <pt x="342" y="898" on="1"/>
        <pt x="103" y="800" on="1"/>
      </contour>
    </TTGlyph>
    <TTGlyph name="p" xMin="59" yMin="-426" xMax="1381" yMax="1092">
      <contour>
        <pt x="59" y="-319" on="1"/>
        <pt x="236" y="-319" on="1"/>
        <pt x="236" y="956" on="1"/>
        <pt x="59" y="956" on="1"/>
        <pt x="59" y="1063" on="1"/>
        <pt x="420" y="1063" on="1"/>
        <pt x="420" y="897" on="1"/>
        <pt x="474" y="996" on="0"/>
        <pt x="642" y="1092" on="0"/>
        <pt x="764" y="1092" on="1"/>
        <pt x="960" y="1092" on="0"/>
        <pt x="1208" y="782" on="0"/>
        <pt x="1208" y="282" on="0"/>
        <pt x="960" y="-30" on="0"/>
        <pt x="764" y="-29" on="1"/>
        <pt x="642" y="-30" on="0"/>
        <pt x="474" y="66" on="0"/>
        <pt x="420" y="166" on="1"/>
        <pt x="420" y="-319" on="1"/>
        <pt x="594" y="-319" on="1"/>
        <pt x="594" y="-426" on="1"/>
        <pt x="59" y="-426" on="1"/>
      </contour>
      <contour>
        <pt x="420" y="479" on="1"/>
        <pt x="420" y="286" on="0"/>
        <pt x="568" y="86" on="0"/>
        <pt x="707" y="86" on="1"/>
        <pt x="848" y="86" on="0"/>
        <pt x="992" y="312" on="0"/>
        <pt x="993" y="532" on="1"/>
        <pt x="992" y="753" on="0"/>
        <pt x="848" y="977" on="0"/>
        <pt x="707" y="977" on="1"/>
        <pt x="568" y="977" on="0"/>
        <pt x="420" y="775" on="0"/>
        <pt x="420" y="584" on="1"/>
      </contour>
      <contour>
        <pt x="578" y="-135" on="1"/>
        <pt x="1381" y="-135" on="1"/>
        <pt x="1381" y="-225" on="1"/>
        <pt x="578" y="-225" on="1"/>
      </contour>
    </TTGlyph>
    <TTGlyph name="paragraph" xMin="0" yMin="-225" xMax="4206" yMax="1493">
      <contour>
        <pt x="0" y="-135" on="1"/>
        <pt x="4206" y="-135" on="1"/>
        <pt x="4206" y="-225" on="1"/>
        <pt x="0" y="-225" on="1"/>
      </contour>
      <contour>
        <pt x="357" y="708" on="1"/>
        <pt x="357" y="1010" on="0"/>
        <pt x="484" y="1063" on="1"/>
        <pt x="640" y="957" on="0"/>
        <pt x="981" y="957" on="1"/>
        <pt x="1344" y="957" on="0"/>
        <pt x="1584" y="1063" on="1"/>
        <pt x="1667" y="1100" on="0"/>
        <pt x="1881" y="1449" on="1"/>
        <pt x="1908" y="1493" on="0"/>
        <pt x="2013" y="1493" on="1"/>
        <pt x="2045" y="1429" on="0"/>
        <pt x="2271" y="1251" on="1"/>
        <pt x="2371" y="1172" on="0"/>
        <pt x="2702" y="1063" on="1"/>
        <pt x="2886" y="1002" on="0"/>
        <pt x="3039" y="1002" on="1"/>
        <pt x="3194" y="1002" on="0"/>
        <pt x="3317" y="1064" on="1"/>
        <pt x="3451" y="1131" on="0"/>
        <pt x="3537" y="1194" on="1"/>
        <pt x="3580" y="1226" on="0"/>
        <pt x="3627" y="1226" on="1"/>
        <pt x="3664" y="1226" on="0"/>
        <pt x="3705" y="1206" on="1"/>
        <pt x="3779" y="1169" on="0"/>
        <pt x="3779" y="1058" on="1"/>
        <pt x="3779" y="1016" on="0"/>
        <pt x="3768" y="963" on="1"/>
        <pt x="3717" y="718" on="0"/>
        <pt x="3639" y="564" on="1"/>
        <pt x="3515" y="319" on="0"/>
        <pt x="3279" y="118" on="1"/>
        <pt x="3141" y="0" on="0"/>
        <pt x="2891" y="0" on="1"/>
        <pt x="2251" y="0" on="1"/>
        <pt x="1974" y="76" on="0"/>
        <pt x="1897" y="181" on="1"/>
        <pt x="1686" y="178" on="0"/>
        <pt x="1495" y="178" on="1"/>
        <pt x="1442" y="0" on="0"/>
        <pt x="1326" y="0" on="1"/>
        <pt x="613" y="0" on="1"/>
        <pt x="357" y="143" on="0"/>
      </contour>
    </TTGlyph>
    <TTGlyph name="parenleft" xMin="0" yMin="-319" xMax="653" yMax="1556">
      <contour>
        <pt x="0" y="-135" on="1"/>
        <pt x="288" y="-135" on="1"/>
        <pt x="288" y="-225" on="1"/>
        <pt x="0" y="-225" on="1"/>
      </contour>
      <contour>
        <pt x="162" y="262" on="0"/>
        <pt x="162" y="974" on="0"/>
        <pt x="410" y="1446" on="0"/>
        <pt x="653" y="1556" on="1"/>
        <pt x="653" y="1458" on="1"/>
        <pt x="499" y="1352" on="0"/>
        <pt x="365" y="968" on="0"/>
        <pt x="365" y="618" on="1"/>
        <pt x="365" y="270" on="0"/>
        <pt x="499" y="-114" on="0"/>
        <pt x="653" y="-221" on="1"/>
        <pt x="653" y="-319" on="1"/>
        <pt x="410" y="-210" on="0"/>
      </contour>
    </TTGlyph>
    <TTGlyph name="parenright" xMin="145" yMin="-319" xMax="869" yMax="1556">
      <contour>
        <pt x="145" y="-221" on="1"/>
        <pt x="298" y="-114" on="0"/>
        <pt x="434" y="270" on="0"/>
        <pt x="434" y="618" on="1"/>
        <pt x="434" y="968" on="0"/>
        <pt x="298" y="1352" on="0"/>
        <pt x="145" y="1458" on="1"/>
        <pt x="145" y="1556" on="1"/>
        <pt x="389" y="1446" on="0"/>
        <pt x="637" y="974" on="0"/>
        <pt x="637" y="262" on="0"/>
        <pt x="389" y="-210" on="0"/>
        <pt x="145" y="-319" on="1"/>
      </contour>
      <contour>
        <pt x="509" y="-135" on="1"/>
        <pt x="869" y="-135" on="1"/>
        <pt x="869" y="-225" on="1"/>
        <pt x="509" y="-225" on="1"/>
      </contour>
    </TTGlyph>
    <TTGlyph name="period" xMin="0" yMin="-225" xMax="721" yMax="238">
      <contour>
        <pt x="0" y="-135" on="1"/>
        <pt x="721" y="-135" on="1"/>
        <pt x="721" y="-225" on="1"/>
        <pt x="0" y="-225" on="1"/>
      </contour>
      <contour>
        <pt x="193" y="48" on="0"/>
        <pt x="193" y="160" on="0"/>
        <pt x="269" y="238" on="0"/>
        <pt x="326" y="238" on="1"/>
        <pt x="381" y="238" on="0"/>
        <pt x="459" y="160" on="0"/>
        <pt x="459" y="104" on="1"/>
        <pt x="459" y="49" on="0"/>
        <pt x="381" y="-29" on="0"/>
        <pt x="326" y="-29" on="1"/>
        <pt x="269" y="-28" on="0"/>
      </contour>
    </TTGlyph>
    <TTGlyph name="pi" xMin="0" yMin="-225" xMax="1416" yMax="1063">
      <contour>
        <pt x="0" y="-135" on="1"/>
        <pt x="1416" y="-135" on="1"/>
        <pt x="1416" y="-225" on="1"/>
        <pt x="0" y="-225" on="1"/>
      </contour>
      <contour>
        <pt x="74" y="956" on="1"/>
        <pt x="74" y="1063" on="1"/>
        <pt x="1272" y="1063" on="1"/>
        <pt x="1272" y="956" on="1"/>
        <pt x="1098" y="956" on="1"/>
        <pt x="1098" y="106" on="1"/>
        <pt x="1262" y="106" on="1"/>
        <pt x="1262" y="0" on="1"/>
        <pt x="754" y="0" on="1"/>
        <pt x="754" y="106" on="1"/>
        <pt x="913" y="106" on="1"/>
        <pt x="913" y="956" on="1"/>
        <pt x="434" y="956" on="1"/>
        <pt x="434" y="106" on="1"/>
        <pt x="594" y="106" on="1"/>
        <pt x="594" y="0" on="1"/>
        <pt x="84" y="0" on="1"/>
        <pt x="84" y="106" on="1"/>
        <pt x="250" y="106" on="1"/>
        <pt x="250" y="956" on="1"/>
      </contour>
    </TTGlyph>
    <TTGlyph name="plus" xMin="0" yMin="-225" xMax="1786" yMax="1284">
      <contour>
        <pt x="0" y="-135" on="1"/>
        <pt x="1786" y="-135" on="1"/>
        <pt x="1786" y="-225" on="1"/>
        <pt x="0" y="-225" on="1"/>
      </contour>
      <contour>
        <pt x="217" y="561" on="1"/>
        <pt x="217" y="723" on="1"/>
        <pt x="778" y="723" on="1"/>
        <pt x="778" y="1284" on="1"/>
        <pt x="938" y="1284" on="1"/>
        <pt x="938" y="723" on="1"/>
        <pt x="1499" y="723" on="1"/>
        <pt x="1499" y="561" on="1"/>
        <pt x="938" y="561" on="1"/>
        <pt x="938" y="0" on="1"/>
        <pt x="778" y="0" on="1"/>
        <pt x="778" y="561" on="1"/>
      </contour>
    </TTGlyph>
    <TTGlyph name="q" xMin="0" yMin="-426" xMax="1251" yMax="1092">
      <contour>
        <pt x="0" y="-135" on="1"/>
        <pt x="690" y="-135" on="1"/>
        <pt x="690" y="-225" on="1"/>
        <pt x="0" y="-225" on="1"/>
      </contour>
      <contour>
        <pt x="102" y="282" on="0"/>
        <pt x="102" y="782" on="0"/>
        <pt x="350" y="1092" on="0"/>
        <pt x="547" y="1092" on="1"/>
        <pt x="670" y="1092" on="0"/>
        <pt x="838" y="996" on="0"/>
        <pt x="891" y="897" on="1"/>
        <pt x="891" y="1063" on="1"/>
        <pt x="1251" y="1063" on="1"/>
        <pt x="1251" y="956" on="1"/>
        <pt x="1075" y="956" on="1"/>
        <pt x="1075" y="-319" on="1"/>
        <pt x="1251" y="-319" on="1"/>
        <pt x="1251" y="-426" on="1"/>
        <pt x="717" y="-426" on="1"/>
        <pt x="717" y="-319" on="1"/>
        <pt x="891" y="-319" on="1"/>
        <pt x="891" y="166" on="1"/>
        <pt x="838" y="66" on="0"/>
        <pt x="670" y="-30" on="0"/>
        <pt x="547" y="-29" on="1"/>
        <pt x="350" y="-30" on="0"/>
      </contour>
      <contour>
        <pt x="317" y="532" on="1"/>
        <pt x="318" y="312" on="0"/>
        <pt x="462" y="86" on="0"/>
        <pt x="604" y="86" on="1"/>
        <pt x="744" y="86" on="0"/>
        <pt x="892" y="286" on="0"/>
        <pt x="891" y="479" on="1"/>
        <pt x="891" y="584" on="1"/>
        <pt x="892" y="775" on="0"/>
        <pt x="744" y="977" on="0"/>
        <pt x="604" y="977" on="1"/>
        <pt x="462" y="977" on="0"/>
        <pt x="318" y="753" on="0"/>
      </contour>
    </TTGlyph>
    <TTGlyph name="question" xMin="0" yMin="-225" xMax="1168" yMax="1520">
      <contour>
        <pt x="0" y="-135" on="1"/>
        <pt x="1168" y="-135" on="1"/>
        <pt x="1168" y="-225" on="1"/>
        <pt x="0" y="-225" on="1"/>
      </contour>
      <contour>
        <pt x="139" y="1167" on="1"/>
        <pt x="139" y="1427" on="1"/>
        <pt x="244" y="1474" on="0"/>
        <pt x="436" y="1520" on="0"/>
        <pt x="520" y="1520" on="1"/>
        <pt x="742" y="1520" on="0"/>
        <pt x="998" y="1306" on="0"/>
        <pt x="999" y="1124" on="1"/>
        <pt x="998" y="938" on="0"/>
        <pt x="778" y="702" on="0"/>
        <pt x="555" y="651" on="1"/>
        <pt x="555" y="397" on="1"/>
        <pt x="432" y="397" on="1"/>
        <pt x="432" y="725" on="1"/>
        <pt x="608" y="768" on="0"/>
        <pt x="788" y="970" on="0"/>
        <pt x="788" y="1126" on="1"/>
        <pt x="788" y="1263" on="0"/>
        <pt x="642" y="1421" on="0"/>
        <pt x="516" y="1421" on="1"/>
        <pt x="402" y="1422" on="0"/>
        <pt x="258" y="1290" on="0"/>
        <pt x="236" y="1167" on="1"/>
      </contour>
      <contour>
        <pt x="360" y="48" on="0"/>
        <pt x="360" y="160" on="0"/>
        <pt x="436" y="238" on="0"/>
        <pt x="494" y="238" on="1"/>
        <pt x="549" y="238" on="0"/>
        <pt x="627" y="160" on="0"/>
        <pt x="627" y="104" on="1"/>
        <pt x="627" y="49" on="0"/>
        <pt x="549" y="-29" on="0"/>
        <pt x="494" y="-29" on="1"/>
        <pt x="436" y="-28" on="0"/>
      </contour>
    </TTGlyph>
    <TTGlyph name="quotedblleft" xMin="0" yMin="-225" xMax="1117" yMax="1520">
      <contour>
        <pt x="0" y="-135" on="1"/>
        <pt x="1117" y="-135" on="1"/>
        <pt x="1117" y="-225" on="1"/>
        <pt x="0" y="-225" on="1"/>
      </contour>
      <contour>
        <pt x="209" y="1014" on="1"/>
        <pt x="210" y="1188" on="0"/>
        <pt x="334" y="1428" on="0"/>
        <pt x="471" y="1520" on="1"/>
        <pt x="549" y="1440" on="1"/>
        <pt x="472" y="1376" on="0"/>
        <pt x="404" y="1206" on="0"/>
        <pt x="403" y="1077" on="1"/>
        <pt x="403" y="1014" on="1"/>
      </contour>
      <contour>
        <pt x="604" y="1014" on="1"/>
        <pt x="606" y="1189" on="0"/>
        <pt x="730" y="1429" on="0"/>
        <pt x="866" y="1520" on="1"/>
        <pt x="944" y="1440" on="1"/>
        <pt x="868" y="1376" on="0"/>
        <pt x="800" y="1206" on="0"/>
        <pt x="799" y="1077" on="1"/>
        <pt x="799" y="1014" on="1"/>
      </contour>
    </TTGlyph>
    <TTGlyph name="quotedblright" xMin="0" yMin="-225" xMax="1117" yMax="1493">
      <contour>
        <pt x="0" y="-135" on="1"/>
        <pt x="1117" y="-135" on="1"/>
        <pt x="1117" y="-225" on="1"/>
        <pt x="0" y="-225" on="1"/>
      </contour>
      <contour>
        <pt x="145" y="1067" on="1"/>
        <pt x="223" y="1130" on="0"/>
        <pt x="293" y="1302" on="0"/>
        <pt x="293" y="1432" on="1"/>
        <pt x="293" y="1493" on="1"/>
        <pt x="487" y="1493" on="1"/>
        <pt x="486" y="1320" on="0"/>
        <pt x="360" y="1078" on="0"/>
        <pt x="223" y="987" on="1"/>
      </contour>
      <contour>
        <pt x="543" y="1067" on="1"/>
        <pt x="620" y="1130" on="0"/>
        <pt x="688" y="1302" on="0"/>
        <pt x="688" y="1430" on="1"/>
        <pt x="688" y="1493" on="1"/>
        <pt x="882" y="1493" on="1"/>
        <pt x="880" y="1318" on="0"/>
        <pt x="756" y="1078" on="0"/>
        <pt x="621" y="987" on="1"/>
      </contour>
    </TTGlyph>
    <TTGlyph name="quoteleft" xMin="0" yMin="-225" xMax="721" yMax="1520">
      <contour>
        <pt x="0" y="-135" on="1"/>
        <pt x="721" y="-135" on="1"/>
        <pt x="721" y="-225" on="1"/>
        <pt x="0" y="-225" on="1"/>
      </contour>
      <contour>
        <pt x="209" y="1014" on="1"/>
        <pt x="210" y="1188" on="0"/>
        <pt x="334" y="1428" on="0"/>
        <pt x="471" y="1520" on="1"/>
        <pt x="549" y="1440" on="1"/>
        <pt x="472" y="1376" on="0"/>
        <pt x="404" y="1206" on="0"/>
        <pt x="403" y="1077" on="1"/>
        <pt x="403" y="1014" on="1"/>
      </contour>
    </TTGlyph>
    <TTGlyph name="quoteright" xMin="0" yMin="-225" xMax="721" yMax="1493">
      <contour>
        <pt x="0" y="-135" on="1"/>
        <pt x="721" y="-135" on="1"/>
        <pt x="721" y="-225" on="1"/>
        <pt x="0" y="-225" on="1"/>
      </contour>
      <contour>
        <pt x="145" y="1067" on="1"/>
        <pt x="223" y="1130" on="0"/>
        <pt x="293" y="1302" on="0"/>
        <pt x="293" y="1432" on="1"/>
        <pt x="293" y="1493" on="1"/>
        <pt x="487" y="1493" on="1"/>
        <pt x="486" y="1320" on="0"/>
        <pt x="360" y="1078" on="0"/>
        <pt x="223" y="987" on="1"/>
      </contour>
    </TTGlyph>
    <TTGlyph name="quotesingle" xMin="0" yMin="-225" xMax="633" yMax="1493">
      <contour>
        <pt x="0" y="-135" on="1"/>
        <pt x="633" y="-135" on="1"/>
        <pt x="633" y="-225" on="1"/>
        <pt x="0" y="-225" on="1"/>
      </contour>
      <contour>
        <pt x="201" y="938" on="1"/>
        <pt x="201" y="1493" on="1"/>
        <pt x="360" y="1493" on="1"/>
        <pt x="360" y="938" on="1"/>
      </contour>
    </TTGlyph>
    <TTGlyph name="r" xMin="0" yMin="-225" xMax="1049" yMax="1092">
      <contour>
        <pt x="0" y="-135" on="1"/>
        <pt x="1049" y="-135" on="1"/>
        <pt x="1049" y="-225" on="1"/>
        <pt x="0" y="-225" on="1"/>
      </contour>
      <contour>
        <pt x="74" y="958" on="1"/>
        <pt x="74" y="1063" on="1"/>
        <pt x="434" y="1063" on="1"/>
        <pt x="434" y="874" on="1"/>
        <pt x="488" y="984" on="0"/>
        <pt x="658" y="1092" on="0"/>
        <pt x="780" y="1092" on="1"/>
        <pt x="824" y="1092" on="0"/>
        <pt x="924" y="1078" on="0"/>
        <pt x="979" y="1065" on="1"/>
        <pt x="979" y="799" on="1"/>
        <pt x="873" y="799" on="1"/>
        <pt x="868" y="878" on="0"/>
        <pt x="790" y="956" on="0"/>
        <pt x="715" y="956" on="1"/>
        <pt x="578" y="956" on="0"/>
        <pt x="434" y="768" on="0"/>
        <pt x="434" y="592" on="1"/>
        <pt x="434" y="106" on="1"/>
        <pt x="647" y="106" on="1"/>
        <pt x="647" y="0" on="1"/>
        <pt x="84" y="0" on="1"/>
        <pt x="84" y="106" on="1"/>
        <pt x="250" y="106" on="1"/>
        <pt x="250" y="958" on="1"/>
      </contour>
    </TTGlyph>
    <TTGlyph name="s" xMin="0" yMin="-225" xMax="1121" yMax="1092">
      <contour>
        <pt x="0" y="-135" on="1"/>
        <pt x="1121" y="-135" on="1"/>
        <pt x="1121" y="-225" on="1"/>
        <pt x="0" y="-225" on="1"/>
      </contour>
      <contour>
        <pt x="115" y="59" on="1"/>
        <pt x="115" y="307" on="1"/>
        <pt x="221" y="307" on="1"/>
        <pt x="226" y="188" on="0"/>
        <pt x="366" y="70" on="0"/>
        <pt x="504" y="70" on="1"/>
        <pt x="628" y="70" on="0"/>
        <pt x="758" y="162" on="0"/>
        <pt x="758" y="252" on="1"/>
        <pt x="758" y="322" on="0"/>
        <pt x="662" y="408" on="0"/>
        <pt x="510" y="457" on="1"/>
        <pt x="377" y="502" on="1"/>
        <pt x="240" y="546" on="0"/>
        <pt x="116" y="678" on="0"/>
        <pt x="117" y="780" on="1"/>
        <pt x="117" y="926" on="0"/>
        <pt x="331" y="1092" on="0"/>
        <pt x="520" y="1092" on="1"/>
        <pt x="604" y="1092" on="0"/>
        <pt x="790" y="1048" on="0"/>
        <pt x="889" y="1006" on="1"/>
        <pt x="889" y="774" on="1"/>
        <pt x="783" y="774" on="1"/>
        <pt x="779" y="877" on="0"/>
        <pt x="643" y="993" on="0"/>
        <pt x="526" y="993" on="1"/>
        <pt x="410" y="993" on="0"/>
        <pt x="290" y="911" on="0"/>
        <pt x="291" y="829" on="1"/>
        <pt x="291" y="762" on="0"/>
        <pt x="381" y="682" on="0"/>
        <pt x="516" y="639" on="1"/>
        <pt x="662" y="594" on="1"/>
        <pt x="814" y="546" on="0"/>
        <pt x="946" y="406" on="0"/>
        <pt x="946" y="295" on="1"/>
        <pt x="946" y="144" on="0"/>
        <pt x="714" y="-28" on="0"/>
        <pt x="512" y="-29" on="1"/>
        <pt x="409" y="-29" on="0"/>
        <pt x="213" y="15" on="0"/>
      </contour>
    </TTGlyph>
    <TTGlyph name="semicolon" xMin="74" yMin="-279" xMax="760" yMax="889">
      <contour>
        <pt x="74" y="-199" on="1"/>
        <pt x="168" y="-130" on="0"/>
        <pt x="256" y="58" on="0"/>
        <pt x="256" y="190" on="1"/>
        <pt x="256" y="227" on="1"/>
        <pt x="453" y="227" on="1"/>
        <pt x="444" y="56" on="0"/>
        <pt x="300" y="-188" on="0"/>
        <pt x="154" y="-279" on="1"/>
      </contour>
      <contour>
        <pt x="217" y="756" on="1"/>
        <pt x="218" y="812" on="0"/>
        <pt x="294" y="888" on="0"/>
        <pt x="350" y="889" on="1"/>
        <pt x="406" y="889" on="0"/>
        <pt x="482" y="811" on="0"/>
        <pt x="483" y="756" on="1"/>
        <pt x="482" y="700" on="0"/>
        <pt x="406" y="624" on="0"/>
        <pt x="350" y="623" on="1"/>
        <pt x="294" y="624" on="0"/>
        <pt x="218" y="700" on="0"/>
      </contour>
      <contour>
        <pt x="460" y="-135" on="1"/>
        <pt x="760" y="-135" on="1"/>
        <pt x="760" y="-225" on="1"/>
        <pt x="460" y="-225" on="1"/>
      </contour>
    </TTGlyph>
    <TTGlyph name="seven" xMin="0" yMin="-430" xMax="1197" yMax="1063">
      <contour>
        <pt x="0" y="-135" on="1"/>
        <pt x="312" y="-135" on="1"/>
        <pt x="312" y="-225" on="1"/>
        <pt x="0" y="-225" on="1"/>
      </contour>
      <contour>
        <pt x="71" y="715" on="1"/>
        <pt x="71" y="1063" on="1"/>
        <pt x="1054" y="1063" on="1"/>
        <pt x="1054" y="961" on="1"/>
        <pt x="470" y="-430" on="1"/>
        <pt x="321" y="-430" on="1"/>
        <pt x="878" y="899" on="1"/>
        <pt x="188" y="899" on="1"/>
        <pt x="188" y="715" on="1"/>
      </contour>
      <contour>
        <pt x="682" y="-135" on="1"/>
        <pt x="1197" y="-135" on="1"/>
        <pt x="1197" y="-225" on="1"/>
        <pt x="682" y="-225" on="1"/>
      </contour>
    </TTGlyph>
    <TTGlyph name="sfthyphen" xMin="0" yMin="-225" xMax="762" yMax="627">
      <contour>
        <pt x="0" y="-135" on="1"/>
        <pt x="762" y="-135" on="1"/>
        <pt x="762" y="-225" on="1"/>
        <pt x="0" y="-225" on="1"/>
      </contour>
      <contour>
        <pt x="90" y="471" on="1"/>
        <pt x="90" y="627" on="1"/>
        <pt x="602" y="627" on="1"/>
        <pt x="602" y="471" on="1"/>
      </contour>
    </TTGlyph>
    <TTGlyph name="six" xMin="0" yMin="-225" xMax="1270" yMax="1520">
      <contour>
        <pt x="0" y="-135" on="1"/>
        <pt x="1270" y="-135" on="1"/>
        <pt x="1270" y="-225" on="1"/>
        <pt x="0" y="-225" on="1"/>
      </contour>
      <contour>
        <pt x="82" y="698" on="1"/>
        <pt x="82" y="1090" on="0"/>
        <pt x="404" y="1520" on="0"/>
        <pt x="697" y="1520" on="1"/>
        <pt x="776" y="1520" on="0"/>
        <pt x="950" y="1490" on="0"/>
        <pt x="1041" y="1460" on="1"/>
        <pt x="1041" y="1214" on="1"/>
        <pt x="928" y="1214" on="1"/>
        <pt x="916" y="1316" on="0"/>
        <pt x="788" y="1420" on="0"/>
        <pt x="676" y="1421" on="1"/>
        <pt x="482" y="1421" on="0"/>
        <pt x="290" y="1127" on="0"/>
        <pt x="289" y="822" on="1"/>
        <pt x="358" y="897" on="0"/>
        <pt x="528" y="971" on="0"/>
        <pt x="637" y="971" on="1"/>
        <pt x="860" y="971" on="0"/>
        <pt x="989" y="837" on="1"/>
        <pt x="1119" y="704" on="0"/>
        <pt x="1119" y="471" on="1"/>
        <pt x="1119" y="244" on="0"/>
        <pt x="979" y="107" on="1"/>
        <pt x="840" y="-29" on="0"/>
        <pt x="607" y="-29" on="1"/>
        <pt x="355" y="-29" on="0"/>
        <pt x="218" y="159" on="1"/>
        <pt x="82" y="347" on="0"/>
      </contour>
      <contour>
        <pt x="322" y="483" on="1"/>
        <pt x="322" y="282" on="0"/>
        <pt x="474" y="70" on="0"/>
        <pt x="756" y="70" on="0"/>
        <pt x="908" y="276" on="0"/>
        <pt x="908" y="666" on="0"/>
        <pt x="756" y="872" on="0"/>
        <pt x="615" y="872" on="1"/>
        <pt x="470" y="872" on="0"/>
        <pt x="322" y="672" on="0"/>
      </contour>
    </TTGlyph>
    <TTGlyph name="slash" xMin="0" yMin="-225" xMax="760" yMax="1493">
      <contour>
        <pt x="0" y="-135" on="1"/>
        <pt x="760" y="-135" on="1"/>
        <pt x="760" y="-225" on="1"/>
        <pt x="0" y="-225" on="1"/>
      </contour>
      <contour>
        <pt x="60" y="0" on="1"/>
        <pt x="530" y="1493" on="1"/>
        <pt x="690" y="1493" on="1"/>
        <pt x="270" y="0" on="1"/>
      </contour>
    </TTGlyph>
    <TTGlyph name="space" xMin="0" yMin="-225" xMax="721" yMax="-135">
      <contour>
        <pt x="0" y="-135" on="1"/>
        <pt x="721" y="-135" on="1"/>
        <pt x="721" y="-225" on="1"/>
        <pt x="0" y="-225" on="1"/>
      </contour>
    </TTGlyph>
    <TTGlyph name="t" xMin="0" yMin="-225" xMax="893" yMax="1393">
      <contour>
        <pt x="0" y="-135" on="1"/>
        <pt x="893" y="-135" on="1"/>
        <pt x="893" y="-225" on="1"/>
        <pt x="0" y="-225" on="1"/>
      </contour>
      <contour>
        <pt x="59" y="956" on="1"/>
        <pt x="59" y="1063" on="1"/>
        <pt x="221" y="1063" on="1"/>
        <pt x="221" y="1393" on="1"/>
        <pt x="406" y="1393" on="1"/>
        <pt x="406" y="1063" on="1"/>
        <pt x="752" y="1063" on="1"/>
        <pt x="752" y="956" on="1"/>
        <pt x="406" y="956" on="1"/>
        <pt x="406" y="281" on="1"/>
        <pt x="406" y="146" on="0"/>
        <pt x="458" y="70" on="0"/>
        <pt x="528" y="70" on="1"/>
        <pt x="600" y="70" on="0"/>
        <pt x="666" y="154" on="0"/>
        <pt x="668" y="250" on="1"/>
        <pt x="807" y="250" on="1"/>
        <pt x="799" y="105" on="0"/>
        <pt x="657" y="-29" on="0"/>
        <pt x="512" y="-29" on="1"/>
        <pt x="353" y="-28" on="0"/>
        <pt x="221" y="112" on="0"/>
        <pt x="221" y="281" on="1"/>
        <pt x="221" y="956" on="1"/>
      </contour>
    </TTGlyph>
    <TTGlyph name="three" xMin="72" yMin="-458" xMax="1067" yMax="1063">
      <contour>
        <pt x="72" y="-21" on="1"/>
        <pt x="184" y="-21" on="1"/>
        <pt x="184" y="-183" on="0"/>
        <pt x="367" y="-348" on="0"/>
        <pt x="526" y="-348" on="1"/>
        <pt x="680" y="-348" on="0"/>
        <pt x="768" y="-248" on="1"/>
        <pt x="813" y="-198" on="0"/>
        <pt x="856" y="-68" on="0"/>
        <pt x="856" y="19" on="1"/>
        <pt x="856" y="118" on="0"/>
        <pt x="811" y="271" on="0"/>
        <pt x="765" y="322" on="1"/>
        <pt x="673" y="423" on="0"/>
        <pt x="498" y="423" on="1"/>
        <pt x="403" y="423" on="1"/>
        <pt x="403" y="525" on="1"/>
        <pt x="733" y="956" on="1"/>
        <pt x="206" y="956" on="1"/>
        <pt x="206" y="772" on="1"/>
        <pt x="100" y="772" on="1"/>
        <pt x="100" y="1063" on="1"/>
        <pt x="970" y="1063" on="1"/>
        <pt x="970" y="977" on="1"/>
        <pt x="601" y="487" on="1"/>
        <pt x="680" y="487" on="1"/>
        <pt x="864" y="459" on="0"/>
        <pt x="966" y="337" on="1"/>
        <pt x="1017" y="277" on="0"/>
        <pt x="1067" y="118" on="0"/>
        <pt x="1067" y="21" on="1"/>
        <pt x="1067" y="-97" on="0"/>
        <pt x="997" y="-271" on="0"/>
        <pt x="926" y="-334" on="1"/>
        <pt x="787" y="-458" on="0"/>
        <pt x="522" y="-458" on="1"/>
        <pt x="403" y="-458" on="0"/>
        <pt x="294" y="-430" on="1"/>
        <pt x="180" y="-401" on="0"/>
        <pt x="72" y="-345" on="1"/>
      </contour>
    </TTGlyph>
    <TTGlyph name="two" xMin="0" yMin="-225" xMax="1046" yMax="1092">
      <contour>
        <pt x="0" y="-135" on="1"/>
        <pt x="1046" y="-135" on="1"/>
        <pt x="1046" y="-225" on="1"/>
        <pt x="0" y="-225" on="1"/>
      </contour>
      <contour>
        <pt x="94" y="0" on="1"/>
        <pt x="94" y="106" on="1"/>
        <pt x="214" y="208" on="0"/>
        <pt x="394" y="364" on="0"/>
        <pt x="526" y="488" on="0"/>
        <pt x="610" y="584" on="0"/>
        <pt x="662" y="664" on="0"/>
        <pt x="682" y="736" on="0"/>
        <pt x="683" y="775" on="1"/>
        <pt x="684" y="878" on="0"/>
        <pt x="560" y="970" on="0"/>
        <pt x="451" y="970" on="1"/>
        <pt x="338" y="970" on="0"/>
        <pt x="210" y="876" on="0"/>
        <pt x="199" y="780" on="1"/>
        <pt x="94" y="780" on="1"/>
        <pt x="94" y="958" on="1"/>
        <pt x="138" y="983" on="0"/>
        <pt x="230" y="1031" on="0"/>
        <pt x="276" y="1050" on="1"/>
        <pt x="322" y="1068" on="0"/>
        <pt x="369" y="1080" on="1"/>
        <pt x="415" y="1092" on="0"/>
        <pt x="458" y="1092" on="1"/>
        <pt x="554" y="1092" on="0"/>
        <pt x="706" y="1040" on="0"/>
        <pt x="762" y="999" on="1"/>
        <pt x="874" y="917" on="0"/>
        <pt x="874" y="775" on="1"/>
        <pt x="874" y="712" on="0"/>
        <pt x="814" y="592" on="0"/>
        <pt x="682" y="444" on="0"/>
        <pt x="578" y="346" on="1"/>
        <pt x="473" y="248" on="0"/>
        <pt x="323" y="106" on="1"/>
        <pt x="787" y="106" on="1"/>
        <pt x="787" y="272" on="1"/>
        <pt x="893" y="272" on="1"/>
        <pt x="893" y="0" on="1"/>
      </contour>
    </TTGlyph>
    <TTGlyph name="u" xMin="0" yMin="-225" xMax="1389" yMax="1063">
      <contour>
        <pt x="0" y="-135" on="1"/>
        <pt x="1389" y="-135" on="1"/>
        <pt x="1389" y="-225" on="1"/>
        <pt x="0" y="-225" on="1"/>
      </contour>
      <contour>
        <pt x="55" y="956" on="1"/>
        <pt x="55" y="1063" on="1"/>
        <pt x="406" y="1063" on="1"/>
        <pt x="406" y="444" on="1"/>
        <pt x="406" y="250" on="0"/>
        <pt x="502" y="106" on="0"/>
        <pt x="623" y="106" on="1"/>
        <pt x="751" y="106" on="0"/>
        <pt x="885" y="294" on="0"/>
        <pt x="885" y="473" on="1"/>
        <pt x="885" y="956" on="1"/>
        <pt x="725" y="956" on="1"/>
        <pt x="725" y="1063" on="1"/>
        <pt x="1069" y="1063" on="1"/>
        <pt x="1069" y="106" on="1"/>
        <pt x="1243" y="106" on="1"/>
        <pt x="1243" y="0" on="1"/>
        <pt x="885" y="0" on="1"/>
        <pt x="885" y="188" on="1"/>
        <pt x="834" y="82" on="0"/>
        <pt x="672" y="-30" on="0"/>
        <pt x="565" y="-29" on="1"/>
        <pt x="388" y="-28" on="0"/>
        <pt x="220" y="172" on="0"/>
        <pt x="221" y="387" on="1"/>
        <pt x="221" y="956" on="1"/>
      </contour>
    </TTGlyph>
    <TTGlyph name="underscore" xMin="0" yMin="-483" xMax="1024" yMax="-403">
      <contour>
        <pt x="0" y="-403" on="1"/>
        <pt x="1024" y="-403" on="1"/>
        <pt x="1024" y="-483" on="1"/>
        <pt x="0" y="-483" on="1"/>
      </contour>
    </TTGlyph>
    <TTGlyph name="uni200A" xMin="0" yMin="-225" xMax="274" yMax="-135">
      <contour>
        <pt x="0" y="-135" on="1"/>
        <pt x="274" y="-135" on="1"/>
        <pt x="274" y="-225" on="1"/>
        <pt x="0" y="-225" on="1"/>
      </contour>
    </TTGlyph>
    <TTGlyph name="uni200C" xMin="0" yMin="-225" xMax="70" yMax="-135">
      <contour>
        <pt x="0" y="-135" on="1"/>
        <pt x="70" y="-135" on="1"/>
        <pt x="70" y="-225" on="1"/>
        <pt x="0" y="-225" on="1"/>
      </contour>
    </TTGlyph>
    <TTGlyph name="uni200D" xMin="0" yMin="-225" xMax="70" yMax="-135">
      <contour>
        <pt x="0" y="-135" on="1"/>
        <pt x="70" y="-135" on="1"/>
        <pt x="70" y="-225" on="1"/>
        <pt x="0" y="-225" on="1"/>
      </contour>
    </TTGlyph>
    <TTGlyph name="uni2010" xMin="0" yMin="-225" xMax="762" yMax="627">
      <contour>
        <pt x="0" y="-135" on="1"/>
        <pt x="762" y="-135" on="1"/>
        <pt x="762" y="-225" on="1"/>
        <pt x="0" y="-225" on="1"/>
      </contour>
      <contour>
        <pt x="90" y="471" on="1"/>
        <pt x="90" y="627" on="1"/>
        <pt x="602" y="627" on="1"/>
        <pt x="602" y="471" on="1"/>
      </contour>
    </TTGlyph>
    <TTGlyph name="uni2011" xMin="0" yMin="-225" xMax="762" yMax="627">
      <contour>
        <pt x="0" y="-135" on="1"/>
        <pt x="762" y="-135" on="1"/>
        <pt x="762" y="-225" on="1"/>
        <pt x="0" y="-225" on="1"/>
      </contour>
      <contour>
        <pt x="90" y="471" on="1"/>
        <pt x="90" y="627" on="1"/>
        <pt x="602" y="627" on="1"/>
        <pt x="602" y="471" on="1"/>
      </contour>
    </TTGlyph>
    <TTGlyph name="uni2023" xMin="0" yMin="-225" xMax="1278" yMax="1137">
      <contour>
        <pt x="0" y="-135" on="1"/>
        <pt x="1278" y="-135" on="1"/>
        <pt x="1278" y="-225" on="1"/>
        <pt x="0" y="-225" on="1"/>
      </contour>
      <contour>
        <pt x="307" y="385" on="1"/>
        <pt x="307" y="1137" on="1"/>
        <pt x="981" y="761" on="1"/>
      </contour>
    </TTGlyph>
    <TTGlyph name="uniFB03" xMin="0" yMin="-225" xMax="2175" yMax="1556">
      <contour>
        <pt x="0" y="-135" on="1"/>
        <pt x="2175" y="-135" on="1"/>
        <pt x="2175" y="-225" on="1"/>
        <pt x="0" y="-225" on="1"/>
      </contour>
      <contour>
        <pt x="72" y="0" on="1"/>
        <pt x="72" y="106" on="1"/>
        <pt x="248" y="106" on="1"/>
        <pt x="248" y="956" on="1"/>
        <pt x="72" y="956" on="1"/>
        <pt x="72" y="1063" on="1"/>
        <pt x="248" y="1063" on="1"/>
        <pt x="248" y="1196" on="1"/>
        <pt x="248" y="1374" on="0"/>
        <pt x="432" y="1556" on="0"/>
        <pt x="612" y="1556" on="1"/>
        <pt x="679" y="1556" on="0"/>
        <pt x="813" y="1532" on="0"/>
        <pt x="879" y="1507" on="1"/>
        <pt x="879" y="1305" on="1"/>
        <pt x="782" y="1305" on="1"/>
        <pt x="782" y="1380" on="0"/>
        <pt x="698" y="1458" on="0"/>
        <pt x="619" y="1458" on="1"/>
        <pt x="516" y="1458" on="0"/>
        <pt x="432" y="1346" on="0"/>
        <pt x="432" y="1200" on="1"/>
        <pt x="432" y="1063" on="1"/>
        <pt x="989" y="1063" on="1"/>
        <pt x="989" y="1159" on="1"/>
        <pt x="989" y="1356" on="0"/>
        <pt x="1223" y="1556" on="0"/>
        <pt x="1452" y="1556" on="1"/>
        <pt x="1539" y="1556" on="0"/>
        <pt x="1721" y="1530" on="0"/>
        <pt x="1810" y="1503" on="1"/>
        <pt x="1810" y="1286" on="1"/>
        <pt x="1716" y="1287" on="1"/>
        <pt x="1713" y="1374" on="0"/>
        <pt x="1591" y="1458" on="0"/>
        <pt x="1468" y="1458" on="1"/>
        <pt x="1315" y="1458" on="0"/>
        <pt x="1173" y="1316" on="0"/>
        <pt x="1173" y="1163" on="1"/>
        <pt x="1173" y="1063" on="1"/>
        <pt x="1884" y="1063" on="1"/>
        <pt x="1884" y="106" on="1"/>
        <pt x="2058" y="106" on="1"/>
        <pt x="2058" y="0" on="1"/>
        <pt x="1523" y="0" on="1"/>
        <pt x="1523" y="106" on="1"/>
        <pt x="1700" y="106" on="1"/>
        <pt x="1700" y="956" on="1"/>
        <pt x="1173" y="956" on="1"/>
        <pt x="1173" y="106" on="1"/>
        <pt x="1347" y="106" on="1"/>
        <pt x="1347" y="0" on="1"/>
        <pt x="813" y="0" on="1"/>
        <pt x="813" y="106" on="1"/>
        <pt x="989" y="106" on="1"/>
        <pt x="989" y="956" on="1"/>
        <pt x="432" y="956" on="1"/>
        <pt x="432" y="106" on="1"/>
        <pt x="668" y="106" on="1"/>
        <pt x="668" y="0" on="1"/>
      </contour>
    </TTGlyph>
    <TTGlyph name="uniFB04" xMin="0" yMin="-225" xMax="2180" yMax="1556">
      <contour>
        <pt x="0" y="-135" on="1"/>
        <pt x="2180" y="-135" on="1"/>
        <pt x="2180" y="-225" on="1"/>
        <pt x="0" y="-225" on="1"/>
      </contour>
      <contour>
        <pt x="70" y="0" on="1"/>
        <pt x="70" y="106" on="1"/>
        <pt x="246" y="106" on="1"/>
        <pt x="246" y="956" on="1"/>
        <pt x="70" y="956" on="1"/>
        <pt x="70" y="1063" on="1"/>
        <pt x="246" y="1063" on="1"/>
        <pt x="246" y="1196" on="1"/>
        <pt x="246" y="1374" on="0"/>
        <pt x="430" y="1556" on="0"/>
        <pt x="610" y="1556" on="1"/>
        <pt x="677" y="1556" on="0"/>
        <pt x="811" y="1532" on="0"/>
        <pt x="877" y="1507" on="1"/>
        <pt x="877" y="1305" on="1"/>
        <pt x="780" y="1305" on="1"/>
        <pt x="780" y="1380" on="0"/>
        <pt x="696" y="1458" on="0"/>
        <pt x="617" y="1458" on="1"/>
        <pt x="514" y="1458" on="0"/>
        <pt x="430" y="1346" on="0"/>
        <pt x="430" y="1200" on="1"/>
        <pt x="430" y="1063" on="1"/>
        <pt x="985" y="1063" on="1"/>
        <pt x="985" y="1159" on="1"/>
        <pt x="984" y="1360" on="0"/>
        <pt x="1224" y="1556" on="0"/>
        <pt x="1468" y="1556" on="1"/>
        <pt x="1865" y="1556" on="1"/>
        <pt x="1865" y="106" on="1"/>
        <pt x="2040" y="106" on="1"/>
        <pt x="2040" y="0" on="1"/>
        <pt x="1505" y="0" on="1"/>
        <pt x="1505" y="106" on="1"/>
        <pt x="1681" y="106" on="1"/>
        <pt x="1681" y="1450" on="1"/>
        <pt x="1466" y="1450" on="1"/>
        <pt x="1303" y="1450" on="0"/>
        <pt x="1169" y="1320" on="0"/>
        <pt x="1169" y="1163" on="1"/>
        <pt x="1169" y="1063" on="1"/>
        <pt x="1464" y="1063" on="1"/>
        <pt x="1464" y="956" on="1"/>
        <pt x="1169" y="956" on="1"/>
        <pt x="1169" y="106" on="1"/>
        <pt x="1343" y="106" on="1"/>
        <pt x="1343" y="0" on="1"/>
        <pt x="809" y="0" on="1"/>
        <pt x="809" y="106" on="1"/>
        <pt x="985" y="106" on="1"/>
        <pt x="985" y="956" on="1"/>
        <pt x="430" y="956" on="1"/>
        <pt x="430" y="106" on="1"/>
        <pt x="666" y="106" on="1"/>
        <pt x="666" y="0" on="1"/>
      </contour>
    </TTGlyph>
    <TTGlyph name="uniFB05" xMin="0" yMin="-225" xMax="1650" yMax="1556">
      <contour>
        <pt x="0" y="-135" on="1"/>
        <pt x="1650" y="-135" on="1"/>
        <pt x="1650" y="-225" on="1"/>
        <pt x="0" y="-225" on="1"/>
      </contour>
      <contour>
        <pt x="79" y="0" on="1"/>
        <pt x="79" y="106" on="1"/>
        <pt x="255" y="106" on="1"/>
        <pt x="255" y="956" on="1"/>
        <pt x="79" y="956" on="1"/>
        <pt x="79" y="1063" on="1"/>
        <pt x="255" y="1063" on="1"/>
        <pt x="255" y="1159" on="1"/>
        <pt x="255" y="1356" on="0"/>
        <pt x="489" y="1556" on="0"/>
        <pt x="718" y="1556" on="1"/>
        <pt x="805" y="1556" on="0"/>
        <pt x="896" y="1543" on="1"/>
        <pt x="1034" y="1523" on="0"/>
        <pt x="1101" y="1445" on="1"/>
        <pt x="1100" y="1062" on="1"/>
        <pt x="1446" y="1062" on="1"/>
        <pt x="1446" y="955" on="1"/>
        <pt x="1100" y="955" on="1"/>
        <pt x="1100" y="280" on="1"/>
        <pt x="1100" y="145" on="0"/>
        <pt x="1152" y="69" on="0"/>
        <pt x="1222" y="69" on="1"/>
        <pt x="1294" y="70" on="0"/>
        <pt x="1360" y="154" on="0"/>
        <pt x="1362" y="249" on="1"/>
        <pt x="1501" y="249" on="1"/>
        <pt x="1493" y="104" on="0"/>
        <pt x="1351" y="-30" on="0"/>
        <pt x="1206" y="-30" on="1"/>
        <pt x="1047" y="-30" on="0"/>
        <pt x="915" y="110" on="0"/>
        <pt x="915" y="280" on="1"/>
        <pt x="915" y="955" on="1"/>
        <pt x="753" y="955" on="1"/>
        <pt x="753" y="1062" on="1"/>
        <pt x="915" y="1062" on="1"/>
        <pt x="915" y="1412" on="1"/>
        <pt x="848" y="1458" on="0"/>
        <pt x="734" y="1458" on="1"/>
        <pt x="581" y="1458" on="0"/>
        <pt x="439" y="1316" on="0"/>
        <pt x="439" y="1163" on="1"/>
        <pt x="439" y="1063" on="1"/>
        <pt x="439" y="106" on="1"/>
        <pt x="613" y="106" on="1"/>
        <pt x="613" y="0" on="1"/>
      </contour>
    </TTGlyph>
    <TTGlyph name="v" xMin="-6" yMin="-225" xMax="1227" yMax="1063">
      <contour>
        <pt x="-6" y="-135" on="1"/>
        <pt x="1227" y="-135" on="1"/>
        <pt x="1227" y="-225" on="1"/>
        <pt x="-6" y="-225" on="1"/>
      </contour>
      <contour>
        <pt x="-6" y="956" on="1"/>
        <pt x="-6" y="1063" on="1"/>
        <pt x="483" y="1063" on="1"/>
        <pt x="483" y="956" on="1"/>
        <pt x="313" y="956" on="1"/>
        <pt x="612" y="225" on="1"/>
        <pt x="911" y="956" on="1"/>
        <pt x="752" y="956" on="1"/>
        <pt x="752" y="1063" on="1"/>
        <pt x="1151" y="1063" on="1"/>
        <pt x="1151" y="956" on="1"/>
        <pt x="1032" y="956" on="1"/>
        <pt x="641" y="0" on="1"/>
        <pt x="506" y="0" on="1"/>
        <pt x="115" y="956" on="1"/>
      </contour>
    </TTGlyph>
    <TTGlyph name="w" xMin="0" yMin="-225" xMax="1823" yMax="1063">
      <contour>
        <pt x="0" y="-135" on="1"/>
        <pt x="1823" y="-135" on="1"/>
        <pt x="1823" y="-225" on="1"/>
        <pt x="0" y="-225" on="1"/>
      </contour>
      <contour>
        <pt x="33" y="956" on="1"/>
        <pt x="33" y="1063" on="1"/>
        <pt x="514" y="1063" on="1"/>
        <pt x="514" y="956" on="1"/>
        <pt x="342" y="956" on="1"/>
        <pt x="580" y="233" on="1"/>
        <pt x="854" y="1063" on="1"/>
        <pt x="983" y="1063" on="1"/>
        <pt x="1255" y="233" on="1"/>
        <pt x="1495" y="956" on="1"/>
        <pt x="1341" y="956" on="1"/>
        <pt x="1341" y="1063" on="1"/>
        <pt x="1726" y="1063" on="1"/>
        <pt x="1726" y="956" on="1"/>
        <pt x="1608" y="956" on="1"/>
        <pt x="1292" y="0" on="1"/>
        <pt x="1139" y="0" on="1"/>
        <pt x="877" y="795" on="1"/>
        <pt x="614" y="0" on="1"/>
        <pt x="467" y="0" on="1"/>
        <pt x="152" y="956" on="1"/>
      </contour>
    </TTGlyph>
    <TTGlyph name="x" xMin="0" yMin="-225" xMax="1225" yMax="1063">
      <contour>
        <pt x="0" y="-135" on="1"/>
        <pt x="1225" y="-135" on="1"/>
        <pt x="1225" y="-225" on="1"/>
        <pt x="0" y="-225" on="1"/>
      </contour>
      <contour>
        <pt x="25" y="956" on="1"/>
        <pt x="25" y="1063" on="1"/>
        <pt x="500" y="1063" on="1"/>
        <pt x="500" y="956" on="1"/>
        <pt x="373" y="956" on="1"/>
        <pt x="596" y="649" on="1"/>
        <pt x="819" y="956" on="1"/>
        <pt x="676" y="956" on="1"/>
        <pt x="676" y="1063" on="1"/>
        <pt x="1085" y="1063" on="1"/>
        <pt x="1085" y="956" on="1"/>
        <pt x="944" y="956" on="1"/>
        <pt x="659" y="563" on="1"/>
        <pt x="991" y="106" on="1"/>
        <pt x="1130" y="106" on="1"/>
        <pt x="1130" y="0" on="1"/>
        <pt x="639" y="0" on="1"/>
        <pt x="639" y="106" on="1"/>
        <pt x="774" y="106" on="1"/>
        <pt x="543" y="424" on="1"/>
        <pt x="311" y="106" on="1"/>
        <pt x="449" y="106" on="1"/>
        <pt x="449" y="0" on="1"/>
        <pt x="45" y="0" on="1"/>
        <pt x="45" y="106" on="1"/>
        <pt x="186" y="106" on="1"/>
        <pt x="479" y="510" on="1"/>
        <pt x="156" y="956" on="1"/>
      </contour>
    </TTGlyph>
    <TTGlyph name="y" xMin="-6" yMin="-456" xMax="1227" yMax="1063">
      <contour>
        <pt x="-6" y="-135" on="1"/>
        <pt x="160" y="-135" on="1"/>
        <pt x="160" y="-221" on="1"/>
        <pt x="166" y="-288" on="0"/>
        <pt x="222" y="-348" on="0"/>
        <pt x="283" y="-348" on="1"/>
        <pt x="338" y="-348" on="0"/>
        <pt x="406" y="-288" on="0"/>
        <pt x="442" y="-195" on="1"/>
        <pt x="512" y="-18" on="1"/>
        <pt x="115" y="956" on="1"/>
        <pt x="-6" y="956" on="1"/>
        <pt x="-6" y="1063" on="1"/>
        <pt x="483" y="1063" on="1"/>
        <pt x="483" y="956" on="1"/>
        <pt x="313" y="956" on="1"/>
        <pt x="612" y="225" on="1"/>
        <pt x="911" y="956" on="1"/>
        <pt x="752" y="956" on="1"/>
        <pt x="752" y="1063" on="1"/>
        <pt x="1151" y="1063" on="1"/>
        <pt x="1151" y="956" on="1"/>
        <pt x="1032" y="956" on="1"/>
        <pt x="545" y="-240" on="1"/>
        <pt x="495" y="-364" on="0"/>
        <pt x="373" y="-456" on="0"/>
        <pt x="262" y="-455" on="1"/>
        <pt x="216" y="-455" on="0"/>
        <pt x="116" y="-439" on="0"/>
        <pt x="66" y="-424" on="1"/>
        <pt x="66" y="-225" on="1"/>
        <pt x="-6" y="-225" on="1"/>
      </contour>
      <contour>
        <pt x="755" y="-135" on="1"/>
        <pt x="1227" y="-135" on="1"/>
        <pt x="1227" y="-225" on="1"/>
        <pt x="755" y="-225" on="1"/>
      </contour>
    </TTGlyph>
    <TTGlyph name="z" xMin="0" yMin="-225" xMax="1149" yMax="1063">
      <contour>
        <pt x="0" y="-135" on="1"/>
        <pt x="1149" y="-135" on="1"/>
        <pt x="1149" y="-225" on="1"/>
        <pt x="0" y="-225" on="1"/>
      </contour>
      <contour>
        <pt x="82" y="0" on="1"/>
        <pt x="82" y="86" on="1"/>
        <pt x="748" y="956" on="1"/>
        <pt x="221" y="956" on="1"/>
        <pt x="221" y="772" on="1"/>
        <pt x="115" y="772" on="1"/>
        <pt x="115" y="1063" on="1"/>
        <pt x="985" y="1063" on="1"/>
        <pt x="985" y="977" on="1"/>
        <pt x="319" y="106" on="1"/>
        <pt x="897" y="106" on="1"/>
        <pt x="897" y="299" on="1"/>
        <pt x="1004" y="299" on="1"/>
        <pt x="1004" y="0" on="1"/>
      </contour>
    </TTGlyph>
    <TTGlyph name="zero" xMin="0" yMin="-225" xMax="1265" yMax="1092">
      <contour>
        <pt x="0" y="-135" on="1"/>
        <pt x="1265" y="-135" on="1"/>
        <pt x="1265" y="-225" on="1"/>
        <pt x="0" y="-225" on="1"/>
      </contour>
      <contour>
        <pt x="83" y="532" on="1"/>
        <pt x="83" y="654" on="0"/>
        <pt x="155" y="858" on="0"/>
        <pt x="222" y="933" on="1"/>
        <pt x="288" y="1008" on="0"/>
        <pt x="480" y="1092" on="0"/>
        <pt x="599" y="1092" on="1"/>
        <pt x="722" y="1092" on="0"/>
        <pt x="914" y="1008" on="0"/>
        <pt x="978" y="935" on="1"/>
        <pt x="1044" y="861" on="0"/>
        <pt x="1112" y="655" on="0"/>
        <pt x="1113" y="532" on="1"/>
        <pt x="1113" y="409" on="0"/>
        <pt x="1079" y="306" on="1"/>
        <pt x="1045" y="202" on="0"/>
        <pt x="979" y="128" on="1"/>
        <pt x="914" y="54" on="0"/>
        <pt x="722" y="-30" on="0"/>
        <pt x="599" y="-29" on="1"/>
        <pt x="480" y="-29" on="0"/>
        <pt x="288" y="57" on="0"/>
        <pt x="222" y="132" on="1"/>
        <pt x="155" y="208" on="0"/>
        <pt x="83" y="412" on="0"/>
      </contour>
      <contour>
        <pt x="298" y="648" on="0"/>
        <pt x="298" y="416" on="0"/>
        <pt x="350" y="244" on="0"/>
        <pt x="394" y="185" on="1"/>
        <pt x="437" y="126" on="0"/>
        <pt x="545" y="70" on="0"/>
        <pt x="599" y="70" on="1"/>
        <pt x="652" y="70" on="0"/>
        <pt x="760" y="128" on="0"/>
        <pt x="844" y="244" on="0"/>
        <pt x="872" y="330" on="1"/>
        <pt x="898" y="416" on="0"/>
        <pt x="898" y="648" on="0"/>
        <pt x="846" y="820" on="0"/>
        <pt x="802" y="878" on="1"/>
        <pt x="760" y="936" on="0"/>
        <pt x="652" y="992" on="0"/>
        <pt x="599" y="993" on="1"/>
        <pt x="545" y="992" on="0"/>
        <pt x="437" y="936" on="0"/>
        <pt x="394" y="878" on="1"/>
        <pt x="350" y="820" on="0"/>
      </contour>
    </TTGlyph>
</ttFont>
